SplineFontDB: 3.0
FontName: FdSymbolF-Book
FullName: FdSymbolF-Book
FamilyName: FdSymbolF
Weight: Book
Copyright: Copyright (c) 2012, Michael Ummels. This Font Software is licensed under the SIL Open Font License, Version 1.1.
Version: 1.008
ItalicAngle: 0
UnderlinePosition: -100
UnderlineWidth: 50
Ascent: 800
Descent: 200
InvalidEm: 0
LayerCount: 2
Layer: 0 0 "Back" 1
Layer: 1 0 "Fore" 0
UniqueID: 4186534
OS2Version: 0
OS2_WeightWidthSlopeOnly: 0
OS2_UseTypoMetrics: 0
CreationTime: 1431875298
ModificationTime: 1431875298
OS2TypoAscent: 0
OS2TypoAOffset: 1
OS2TypoDescent: 0
OS2TypoDOffset: 1
OS2TypoLinegap: 0
OS2WinAscent: 0
OS2WinAOffset: 1
OS2WinDescent: 0
OS2WinDOffset: 1
HheadAscent: 0
HheadAOffset: 1
HheadDescent: 0
HheadDOffset: 1
OS2Vendor: 'PfEd'
DEI: 91125
Encoding: Custom
UnicodeInterp: none
NameList: AGL For New Fonts
DisplaySize: -48
AntiAlias: 1
FitToEm: 0
BeginPrivate: 2
BlueValues 31 [-10 0 546 556 707 717 754 764]
OtherBlues 11 [-230 -220]
EndPrivate
BeginChars: 256 228

StartChar: parenleft
Encoding: 0 40 0
Width: 439
Flags: W
HStem: 745 20G<226.5 319>
VStem: 95 64<98.419 451.581>
LayerCount: 2
Back
Fore
SplineSet
344 -170 m 1
 299 -215 l 1
 154 -99 95 88 95 275 c 0
 95 462 154 649 299 765 c 1
 344 720 l 1
 212 614 159 445 159 275 c 0
 159 105 212 -64 344 -170 c 1
EndSplineSet
EndChar

StartChar: parenleft.big1
Encoding: 1 -1 1
Width: 451
Flags: W
VStem: 95 64<60.1948 489.805>
LayerCount: 2
Back
Fore
SplineSet
356 -268 m 1
 311 -313 l 1
 149 -167 95 56 95 275 c 0
 95 494 149 717 311 863 c 1
 356 818 l 1
 208 682 159 477 159 275 c 0
 159 73 208 -132 356 -268 c 1
EndSplineSet
EndChar

StartChar: parenleft.big2
Encoding: 2 -1 2
Width: 469
Flags: W
VStem: 95 64<51.1245 498.876>
LayerCount: 2
Back
Fore
SplineSet
374 -415 m 1
 329 -460 l 1
 145 -267 95 8 95 275 c 0
 95 542 145 817 329 1010 c 1
 374 965 l 1
 203 783 159 525 159 275 c 0
 159 25 203 -233 374 -415 c 1
EndSplineSet
EndChar

StartChar: parenleft.big3
Encoding: 3 -1 3
Width: 487
Flags: W
VStem: 95 64<51.3409 498.659>
LayerCount: 2
Back
Fore
SplineSet
392 -562 m 1
 347 -607 l 1
 141 -367 95 -41 95 275 c 0
 95 591 141 917 347 1157 c 1
 392 1112 l 1
 200 883 159 574 159 275 c 0
 159 -24 200 -333 392 -562 c 1
EndSplineSet
EndChar

StartChar: parenleft.big4
Encoding: 4 -1 4
Width: 523
Flags: W
VStem: 95 64<55.9039 494.096>
LayerCount: 2
Back
Fore
SplineSet
428 -856 m 1
 383 -901 l 1
 137 -567 95 -139 95 275 c 0
 95 689 137 1117 383 1451 c 1
 428 1406 l 1
 197 1082 159 672 159 275 c 0
 159 -122 197 -532 428 -856 c 1
EndSplineSet
EndChar

StartChar: parenleft.big5
Encoding: 5 -1 5
Width: 559
Flags: W
VStem: 95 64<61.5574 488.443>
LayerCount: 2
Back
Fore
SplineSet
464 -1150 m 1
 419 -1195 l 1
 136 -767 95 -238 95 275 c 0
 95 788 136 1317 419 1745 c 1
 464 1700 l 1
 195 1282 159 771 159 275 c 0
 159 -221 195 -732 464 -1150 c 1
EndSplineSet
EndChar

StartChar: parenright
Encoding: 6 41 6
Width: 439
Flags: W
HStem: 745 20G<120 212.5>
VStem: 280 64<98.419 451.581>
LayerCount: 2
Back
Fore
SplineSet
95 -170 m 1
 227 -64 280 105 280 275 c 0
 280 445 227 614 95 720 c 1
 140 765 l 1
 285 649 344 462 344 275 c 0
 344 88 285 -99 140 -215 c 1
 95 -170 l 1
EndSplineSet
EndChar

StartChar: parenright.big1
Encoding: 7 -1 7
Width: 451
Flags: W
VStem: 292 64<60.1948 489.805>
LayerCount: 2
Back
Fore
SplineSet
95 -268 m 1
 243 -132 292 73 292 275 c 0
 292 477 243 682 95 818 c 1
 140 863 l 1
 302 717 356 494 356 275 c 0
 356 56 302 -167 140 -313 c 1
 95 -268 l 1
EndSplineSet
EndChar

StartChar: parenright.big2
Encoding: 8 -1 8
Width: 469
Flags: W
VStem: 310 64<51.1245 498.876>
LayerCount: 2
Back
Fore
SplineSet
95 -415 m 1
 266 -233 310 25 310 275 c 0
 310 525 266 783 95 965 c 1
 140 1010 l 1
 324 817 374 542 374 275 c 0
 374 8 324 -267 140 -460 c 1
 95 -415 l 1
EndSplineSet
EndChar

StartChar: parenright.big3
Encoding: 9 -1 9
Width: 487
Flags: W
VStem: 328 64<51.3409 498.659>
LayerCount: 2
Back
Fore
SplineSet
95 -562 m 1
 287 -333 328 -24 328 275 c 0
 328 574 287 883 95 1112 c 1
 140 1157 l 1
 346 917 392 591 392 275 c 0
 392 -41 346 -367 140 -607 c 1
 95 -562 l 1
EndSplineSet
EndChar

StartChar: parenright.big4
Encoding: 10 -1 10
Width: 523
Flags: W
VStem: 364 64<55.9039 494.096>
LayerCount: 2
Back
Fore
SplineSet
95 -856 m 1
 326 -532 364 -122 364 275 c 0
 364 672 326 1082 95 1406 c 1
 140 1451 l 1
 386 1117 428 689 428 275 c 0
 428 -139 386 -567 140 -901 c 1
 95 -856 l 1
EndSplineSet
EndChar

StartChar: parenright.big5
Encoding: 11 -1 11
Width: 559
Flags: W
VStem: 400 64<61.5574 488.443>
LayerCount: 2
Back
Fore
SplineSet
95 -1150 m 1
 364 -732 400 -221 400 275 c 0
 400 771 364 1282 95 1700 c 1
 140 1745 l 1
 423 1317 464 788 464 275 c 0
 464 -238 423 -767 140 -1195 c 1
 95 -1150 l 1
EndSplineSet
EndChar

StartChar: uni239B
Encoding: 12 9115 12
Width: 559
Flags: W
VStem: 92 64<-492 -218.169>
LayerCount: 2
Back
Fore
SplineSet
156 -492 m 1
 92 -492 l 1
 92 -428 l 2
 92 79 132 602 411 1026 c 1
 467 994 l 1
 195 579 156 68 156 -428 c 2
 156 -492 l 1
EndSplineSet
EndChar

StartChar: uni239E
Encoding: 13 9118 13
Width: 559
Flags: W
VStem: 403 64<-492 -218.169>
LayerCount: 2
Back
Fore
SplineSet
403 -492 m 1
 403 -428 l 2
 403 68 364 579 92 994 c 1
 148 1026 l 1
 427 602 467 79 467 -428 c 2
 467 -492 l 1
 403 -492 l 1
EndSplineSet
EndChar

StartChar: uni239D
Encoding: 14 9117 14
Width: 559
Flags: W
VStem: 92 64<768.169 1042>
LayerCount: 2
Back
Fore
SplineSet
467 -444 m 1
 411 -476 l 1
 132 -52 92 471 92 978 c 2
 92 1042 l 1
 156 1042 l 1
 156 978 l 2
 156 482 195 -29 467 -444 c 1
EndSplineSet
EndChar

StartChar: uni23A0
Encoding: 15 9120 15
Width: 559
Flags: W
VStem: 403 64<768.169 1042>
LayerCount: 2
Back
Fore
SplineSet
92 -444 m 1
 364 -29 403 482 403 978 c 2
 403 1042 l 1
 467 1042 l 1
 467 978 l 2
 467 471 427 -52 148 -476 c 1
 92 -444 l 1
EndSplineSet
EndChar

StartChar: uni239C
Encoding: 16 9116 16
Width: 559
Flags: W
VStem: 95 64<96 454>
LayerCount: 2
Back
Fore
SplineSet
159 454 m 1
 159 96 l 1
 95 96 l 1
 95 454 l 1
 159 454 l 1
EndSplineSet
EndChar

StartChar: uni239F
Encoding: 17 9119 17
Width: 559
Flags: W
VStem: 400 64<96 454>
LayerCount: 2
Back
Fore
SplineSet
400 454 m 1
 464 454 l 1
 464 96 l 1
 400 96 l 1
 400 454 l 1
EndSplineSet
EndChar

StartChar: bracketleft
Encoding: 18 91 18
Width: 424
Flags: W
HStem: -215 64<154 334> 701 64<154 334>
VStem: 90 64<-151 701>
LayerCount: 2
Back
Fore
SplineSet
154 701 m 1
 154 -151 l 1
 334 -151 l 1
 334 -215 l 1
 253 -215 171 -215 90 -215 c 1
 90 765 l 1
 171 765 253 765 334 765 c 1
 334 701 l 1
 154 701 l 1
EndSplineSet
EndChar

StartChar: bracketleft.big1
Encoding: 19 -1 19
Width: 436
Flags: W
HStem: -313 64<154 346> 799 64<154 346>
VStem: 90 64<-249 799>
LayerCount: 2
Back
Fore
SplineSet
154 799 m 1
 154 -249 l 1
 346 -249 l 1
 346 -313 l 1
 261 -313 175 -313 90 -313 c 1
 90 863 l 1
 175 863 261 863 346 863 c 1
 346 799 l 1
 154 799 l 1
EndSplineSet
EndChar

StartChar: bracketleft.big2
Encoding: 20 -1 20
Width: 454
Flags: W
HStem: -460 64<154 364> 946 64<154 364>
VStem: 90 64<-396 946>
LayerCount: 2
Back
Fore
SplineSet
154 946 m 1
 154 -396 l 1
 364 -396 l 1
 364 -460 l 1
 273 -460 181 -460 90 -460 c 1
 90 1010 l 1
 181 1010 273 1010 364 1010 c 1
 364 946 l 1
 154 946 l 1
EndSplineSet
EndChar

StartChar: bracketleft.big3
Encoding: 21 -1 21
Width: 472
Flags: W
HStem: -607 64<154 382> 1093 64<154 382>
VStem: 90 64<-543 1093>
LayerCount: 2
Back
Fore
SplineSet
154 1093 m 1
 154 -543 l 1
 382 -543 l 1
 382 -607 l 1
 285 -607 187 -607 90 -607 c 1
 90 1157 l 1
 187 1157 285 1157 382 1157 c 1
 382 1093 l 1
 154 1093 l 1
EndSplineSet
EndChar

StartChar: bracketleft.big4
Encoding: 22 -1 22
Width: 508
Flags: W
HStem: -901 64<154 418> 1387 64<154 418>
VStem: 90 64<-837 1387>
LayerCount: 2
Back
Fore
SplineSet
154 1387 m 1
 154 -837 l 1
 418 -837 l 1
 418 -901 l 1
 309 -901 199 -901 90 -901 c 1
 90 1451 l 1
 199 1451 309 1451 418 1451 c 1
 418 1387 l 1
 154 1387 l 1
EndSplineSet
EndChar

StartChar: bracketleft.big5
Encoding: 23 -1 23
Width: 544
Flags: W
HStem: -1195 64<154 454> 1681 64<154 454>
VStem: 90 64<-1131 1681>
LayerCount: 2
Back
Fore
SplineSet
154 1681 m 1
 154 -1131 l 1
 454 -1131 l 1
 454 -1195 l 1
 333 -1195 211 -1195 90 -1195 c 1
 90 1745 l 1
 211 1745 333 1745 454 1745 c 1
 454 1681 l 1
 154 1681 l 1
EndSplineSet
EndChar

StartChar: bracketright
Encoding: 24 93 24
Width: 424
Flags: W
HStem: -215 64<90 270> 701 64<90 270>
VStem: 270 64<-151 701>
LayerCount: 2
Back
Fore
SplineSet
334 765 m 1
 334 -215 l 1
 253 -215 171 -215 90 -215 c 1
 90 -151 l 1
 270 -151 l 1
 270 701 l 1
 90 701 l 1
 90 765 l 1
 171 765 253 765 334 765 c 1
EndSplineSet
EndChar

StartChar: bracketright.big1
Encoding: 25 -1 25
Width: 436
Flags: W
HStem: -313 64<90 282> 799 64<90 282>
VStem: 282 64<-249 799>
LayerCount: 2
Back
Fore
SplineSet
346 863 m 1
 346 -313 l 1
 261 -313 175 -313 90 -313 c 1
 90 -249 l 1
 282 -249 l 1
 282 799 l 1
 90 799 l 1
 90 863 l 1
 175 863 261 863 346 863 c 1
EndSplineSet
EndChar

StartChar: bracketright.big2
Encoding: 26 -1 26
Width: 454
Flags: W
HStem: -460 64<90 300> 946 64<90 300>
VStem: 300 64<-396 946>
LayerCount: 2
Back
Fore
SplineSet
364 1010 m 1
 364 -460 l 1
 273 -460 181 -460 90 -460 c 1
 90 -396 l 1
 300 -396 l 1
 300 946 l 1
 90 946 l 1
 90 1010 l 1
 181 1010 273 1010 364 1010 c 1
EndSplineSet
EndChar

StartChar: bracketright.big3
Encoding: 27 -1 27
Width: 472
Flags: W
HStem: -607 64<90 318> 1093 64<90 318>
VStem: 318 64<-543 1093>
LayerCount: 2
Back
Fore
SplineSet
382 1157 m 1
 382 -607 l 1
 285 -607 187 -607 90 -607 c 1
 90 -543 l 1
 318 -543 l 1
 318 1093 l 1
 90 1093 l 1
 90 1157 l 1
 187 1157 285 1157 382 1157 c 1
EndSplineSet
EndChar

StartChar: bracketright.big4
Encoding: 28 -1 28
Width: 508
Flags: W
HStem: -901 64<90 354> 1387 64<90 354>
VStem: 354 64<-837 1387>
LayerCount: 2
Back
Fore
SplineSet
418 1451 m 1
 418 -901 l 1
 309 -901 199 -901 90 -901 c 1
 90 -837 l 1
 354 -837 l 1
 354 1387 l 1
 90 1387 l 1
 90 1451 l 1
 199 1451 309 1451 418 1451 c 1
EndSplineSet
EndChar

StartChar: bracketright.big5
Encoding: 29 -1 29
Width: 544
Flags: W
HStem: -1195 64<90 390> 1681 64<90 390>
VStem: 390 64<-1131 1681>
LayerCount: 2
Back
Fore
SplineSet
454 1745 m 1
 454 -1195 l 1
 333 -1195 211 -1195 90 -1195 c 1
 90 -1131 l 1
 390 -1131 l 1
 390 1681 l 1
 90 1681 l 1
 90 1745 l 1
 211 1745 333 1745 454 1745 c 1
EndSplineSet
EndChar

StartChar: uni230A
Encoding: 30 8970 30
Width: 424
Flags: W
HStem: -215 64<154 334>
VStem: 90 64<-151 797>
LayerCount: 2
Back
Fore
SplineSet
154 -151 m 1
 334 -151 l 1
 334 -215 l 1
 253 -215 171 -215 90 -215 c 1
 90 122 90 460 90 797 c 1
 154 797 l 1
 154 -151 l 1
EndSplineSet
EndChar

StartChar: uni230A.big1
Encoding: 31 -1 31
Width: 436
Flags: W
HStem: -313 64<154 346>
VStem: 90 64<-249 895>
LayerCount: 2
Back
Fore
SplineSet
154 -249 m 1
 346 -249 l 1
 346 -313 l 1
 261 -313 175 -313 90 -313 c 1
 90 90 90 492 90 895 c 1
 154 895 l 1
 154 -249 l 1
EndSplineSet
EndChar

StartChar: uni230A.big2
Encoding: 32 -1 32
Width: 454
Flags: W
HStem: -460 64<154 364>
VStem: 90 64<-396 1042>
LayerCount: 2
Back
Fore
SplineSet
154 -396 m 1
 364 -396 l 1
 364 -460 l 1
 273 -460 181 -460 90 -460 c 1
 90 41 90 541 90 1042 c 1
 154 1042 l 1
 154 -396 l 1
EndSplineSet
EndChar

StartChar: uni230A.big3
Encoding: 33 -1 33
Width: 472
Flags: W
HStem: -607 64<154 382>
VStem: 90 64<-543 1189>
LayerCount: 2
Back
Fore
SplineSet
154 -543 m 1
 382 -543 l 1
 382 -607 l 1
 285 -607 187 -607 90 -607 c 1
 90 -8 90 590 90 1189 c 1
 154 1189 l 1
 154 -543 l 1
EndSplineSet
EndChar

StartChar: uni230A.big4
Encoding: 34 -1 34
Width: 508
Flags: W
HStem: -901 64<154 418>
VStem: 90 64<-837 1483>
LayerCount: 2
Back
Fore
SplineSet
154 -837 m 1
 418 -837 l 1
 418 -901 l 1
 309 -901 199 -901 90 -901 c 1
 90 -106 90 688 90 1483 c 1
 154 1483 l 1
 154 -837 l 1
EndSplineSet
EndChar

StartChar: uni230A.big5
Encoding: 35 -1 35
Width: 544
Flags: W
HStem: -1195 64<154 454>
VStem: 90 64<-1131 1777>
LayerCount: 2
Back
Fore
SplineSet
154 -1131 m 1
 454 -1131 l 1
 454 -1195 l 1
 333 -1195 211 -1195 90 -1195 c 1
 90 -204 90 786 90 1777 c 1
 154 1777 l 1
 154 -1131 l 1
EndSplineSet
EndChar

StartChar: uni230B
Encoding: 36 8971 36
Width: 424
Flags: W
HStem: -215 64<90 270>
VStem: 270 64<-151 797>
LayerCount: 2
Back
Fore
SplineSet
334 -215 m 1
 253 -215 171 -215 90 -215 c 1
 90 -151 l 1
 270 -151 l 1
 270 797 l 1
 334 797 l 1
 334 460 334 122 334 -215 c 1
EndSplineSet
EndChar

StartChar: uni230B.big1
Encoding: 37 -1 37
Width: 436
Flags: W
HStem: -313 64<90 282>
VStem: 282 64<-249 895>
LayerCount: 2
Back
Fore
SplineSet
346 -313 m 1
 261 -313 175 -313 90 -313 c 1
 90 -249 l 1
 282 -249 l 1
 282 895 l 1
 346 895 l 1
 346 492 346 90 346 -313 c 1
EndSplineSet
EndChar

StartChar: uni230B.big2
Encoding: 38 -1 38
Width: 454
Flags: W
HStem: -460 64<90 300>
VStem: 300 64<-396 1042>
LayerCount: 2
Back
Fore
SplineSet
364 -460 m 1
 273 -460 181 -460 90 -460 c 1
 90 -396 l 1
 300 -396 l 1
 300 1042 l 1
 364 1042 l 1
 364 541 364 41 364 -460 c 1
EndSplineSet
EndChar

StartChar: uni230B.big3
Encoding: 39 -1 39
Width: 472
Flags: W
HStem: -607 64<90 318>
VStem: 318 64<-543 1189>
LayerCount: 2
Back
Fore
SplineSet
382 -607 m 1
 285 -607 187 -607 90 -607 c 1
 90 -543 l 1
 318 -543 l 1
 318 1189 l 1
 382 1189 l 1
 382 590 382 -8 382 -607 c 1
EndSplineSet
EndChar

StartChar: uni230B.big4
Encoding: 40 -1 40
Width: 508
Flags: W
HStem: -901 64<90 354>
VStem: 354 64<-837 1483>
LayerCount: 2
Back
Fore
SplineSet
418 -901 m 1
 309 -901 199 -901 90 -901 c 1
 90 -837 l 1
 354 -837 l 1
 354 1483 l 1
 418 1483 l 1
 418 688 418 -106 418 -901 c 1
EndSplineSet
EndChar

StartChar: uni230B.big5
Encoding: 41 -1 41
Width: 544
Flags: W
HStem: -1195 64<90 390>
VStem: 390 64<-1131 1777>
LayerCount: 2
Back
Fore
SplineSet
454 -1195 m 1
 333 -1195 211 -1195 90 -1195 c 1
 90 -1131 l 1
 390 -1131 l 1
 390 1777 l 1
 454 1777 l 1
 454 786 454 -204 454 -1195 c 1
EndSplineSet
EndChar

StartChar: uni2308
Encoding: 42 8968 42
Width: 424
Flags: W
HStem: 701 64<154 334>
VStem: 90 64<-247 701>
LayerCount: 2
Back
Fore
SplineSet
154 -247 m 1
 90 -247 l 1
 90 90 90 428 90 765 c 1
 171 765 253 765 334 765 c 1
 334 701 l 1
 154 701 l 1
 154 -247 l 1
EndSplineSet
EndChar

StartChar: uni2308.big1
Encoding: 43 -1 43
Width: 436
Flags: W
HStem: 799 64<154 346>
VStem: 90 64<-345 799>
LayerCount: 2
Back
Fore
SplineSet
154 -345 m 1
 90 -345 l 1
 90 58 90 460 90 863 c 1
 175 863 261 863 346 863 c 1
 346 799 l 1
 154 799 l 1
 154 -345 l 1
EndSplineSet
EndChar

StartChar: uni2308.big2
Encoding: 44 -1 44
Width: 454
Flags: W
HStem: 946 64<154 364>
VStem: 90 64<-492 946>
LayerCount: 2
Back
Fore
SplineSet
154 -492 m 1
 90 -492 l 1
 90 9 90 509 90 1010 c 1
 181 1010 273 1010 364 1010 c 1
 364 946 l 1
 154 946 l 1
 154 -492 l 1
EndSplineSet
EndChar

StartChar: uni2308.big3
Encoding: 45 -1 45
Width: 472
Flags: W
HStem: 1093 64<154 382>
VStem: 90 64<-639 1093>
LayerCount: 2
Back
Fore
SplineSet
154 -639 m 1
 90 -639 l 1
 90 -40 90 558 90 1157 c 1
 187 1157 285 1157 382 1157 c 1
 382 1093 l 1
 154 1093 l 1
 154 -639 l 1
EndSplineSet
EndChar

StartChar: uni2308.big4
Encoding: 46 -1 46
Width: 508
Flags: W
HStem: 1387 64<154 418>
VStem: 90 64<-933 1387>
LayerCount: 2
Back
Fore
SplineSet
154 -933 m 1
 90 -933 l 1
 90 -138 90 656 90 1451 c 1
 199 1451 309 1451 418 1451 c 1
 418 1387 l 1
 154 1387 l 1
 154 -933 l 1
EndSplineSet
EndChar

StartChar: uni2308.big5
Encoding: 47 -1 47
Width: 544
Flags: W
HStem: 1681 64<154 454>
VStem: 90 64<-1227 1681>
LayerCount: 2
Back
Fore
SplineSet
154 -1227 m 1
 90 -1227 l 1
 90 -236 90 754 90 1745 c 1
 211 1745 333 1745 454 1745 c 1
 454 1681 l 1
 154 1681 l 1
 154 -1227 l 1
EndSplineSet
EndChar

StartChar: uni2309
Encoding: 48 8969 48
Width: 424
Flags: W
HStem: 701 64<90 270>
VStem: 270 64<-247 701>
LayerCount: 2
Back
Fore
SplineSet
334 765 m 1
 334 428 334 90 334 -247 c 1
 270 -247 l 1
 270 701 l 1
 90 701 l 1
 90 765 l 1
 171 765 253 765 334 765 c 1
EndSplineSet
EndChar

StartChar: uni2309.big1
Encoding: 49 -1 49
Width: 436
Flags: W
HStem: 799 64<90 282>
VStem: 282 64<-345 799>
LayerCount: 2
Back
Fore
SplineSet
346 863 m 1
 346 460 346 58 346 -345 c 1
 282 -345 l 1
 282 799 l 1
 90 799 l 1
 90 863 l 1
 175 863 261 863 346 863 c 1
EndSplineSet
EndChar

StartChar: uni2309.big2
Encoding: 50 -1 50
Width: 454
Flags: W
HStem: 946 64<90 300>
VStem: 300 64<-492 946>
LayerCount: 2
Back
Fore
SplineSet
364 1010 m 1
 364 509 364 9 364 -492 c 1
 300 -492 l 1
 300 946 l 1
 90 946 l 1
 90 1010 l 1
 181 1010 273 1010 364 1010 c 1
EndSplineSet
EndChar

StartChar: uni2309.big3
Encoding: 51 -1 51
Width: 472
Flags: W
HStem: 1093 64<90 318>
VStem: 318 64<-639 1093>
LayerCount: 2
Back
Fore
SplineSet
382 1157 m 1
 382 558 382 -40 382 -639 c 1
 318 -639 l 1
 318 1093 l 1
 90 1093 l 1
 90 1157 l 1
 187 1157 285 1157 382 1157 c 1
EndSplineSet
EndChar

StartChar: uni2309.big4
Encoding: 52 -1 52
Width: 508
Flags: W
HStem: 1387 64<90 354>
VStem: 354 64<-933 1387>
LayerCount: 2
Back
Fore
SplineSet
418 1451 m 1
 418 656 418 -138 418 -933 c 1
 354 -933 l 1
 354 1387 l 1
 90 1387 l 1
 90 1451 l 1
 199 1451 309 1451 418 1451 c 1
EndSplineSet
EndChar

StartChar: uni2309.big5
Encoding: 53 -1 53
Width: 544
Flags: W
HStem: 1681 64<90 390>
VStem: 390 64<-1227 1681>
LayerCount: 2
Back
Fore
SplineSet
454 1745 m 1
 454 754 454 -236 454 -1227 c 1
 390 -1227 l 1
 390 1681 l 1
 90 1681 l 1
 90 1745 l 1
 211 1745 333 1745 454 1745 c 1
EndSplineSet
EndChar

StartChar: uni231C
Encoding: 54 8988 54
Width: 424
Flags: W
HStem: 701 64<154 334>
VStem: 90 64<521 701>
LayerCount: 2
Back
Fore
SplineSet
90 765 m 1
 171 765 253 765 334 765 c 1
 334 701 l 1
 154 701 l 1
 154 521 l 1
 90 521 l 1
 90 602 90 684 90 765 c 1
EndSplineSet
EndChar

StartChar: uni231C.big1
Encoding: 55 -1 55
Width: 436
Flags: W
HStem: 799 64<154 346>
VStem: 90 64<607 799>
LayerCount: 2
Back
Fore
SplineSet
90 863 m 1
 175 863 261 863 346 863 c 1
 346 799 l 1
 154 799 l 1
 154 607 l 1
 90 607 l 1
 90 692 90 778 90 863 c 1
EndSplineSet
EndChar

StartChar: uni231C.big2
Encoding: 56 -1 56
Width: 454
Flags: W
HStem: 946 64<154 364>
VStem: 90 64<736 946>
LayerCount: 2
Back
Fore
SplineSet
90 1010 m 1
 181 1010 273 1010 364 1010 c 1
 364 946 l 1
 154 946 l 1
 154 736 l 1
 90 736 l 1
 90 827 90 919 90 1010 c 1
EndSplineSet
EndChar

StartChar: uni231C.big3
Encoding: 57 -1 57
Width: 472
Flags: W
HStem: 1093 64<154 382>
VStem: 90 64<865 1093>
LayerCount: 2
Back
Fore
SplineSet
90 1157 m 1
 187 1157 285 1157 382 1157 c 1
 382 1093 l 1
 154 1093 l 1
 154 865 l 1
 90 865 l 1
 90 962 90 1060 90 1157 c 1
EndSplineSet
EndChar

StartChar: uni231C.big4
Encoding: 58 -1 58
Width: 508
Flags: W
HStem: 1387 64<154 418>
VStem: 90 64<1123 1387>
LayerCount: 2
Back
Fore
SplineSet
90 1451 m 1
 199 1451 309 1451 418 1451 c 1
 418 1387 l 1
 154 1387 l 1
 154 1123 l 1
 90 1123 l 1
 90 1232 90 1342 90 1451 c 1
EndSplineSet
EndChar

StartChar: uni231C.big5
Encoding: 59 -1 59
Width: 544
Flags: W
HStem: 1681 64<154 454>
VStem: 90 64<1381 1681>
LayerCount: 2
Back
Fore
SplineSet
90 1745 m 1
 211 1745 333 1745 454 1745 c 1
 454 1681 l 1
 154 1681 l 1
 154 1381 l 1
 90 1381 l 1
 90 1502 90 1624 90 1745 c 1
EndSplineSet
EndChar

StartChar: uni231D
Encoding: 60 8989 60
Width: 424
Flags: W
HStem: 701 64<90 270>
VStem: 270 64<521 701>
LayerCount: 2
Back
Fore
SplineSet
270 701 m 1
 90 701 l 1
 90 765 l 1
 171 765 253 765 334 765 c 1
 334 684 334 602 334 521 c 1
 270 521 l 1
 270 701 l 1
EndSplineSet
EndChar

StartChar: uni231D.big1
Encoding: 61 -1 61
Width: 436
Flags: W
HStem: 799 64<90 282>
VStem: 282 64<607 799>
LayerCount: 2
Back
Fore
SplineSet
282 799 m 1
 90 799 l 1
 90 863 l 1
 175 863 261 863 346 863 c 1
 346 778 346 692 346 607 c 1
 282 607 l 1
 282 799 l 1
EndSplineSet
EndChar

StartChar: uni231D.big2
Encoding: 62 -1 62
Width: 454
Flags: W
HStem: 946 64<90 300>
VStem: 300 64<736 946>
LayerCount: 2
Back
Fore
SplineSet
300 946 m 1
 90 946 l 1
 90 1010 l 1
 181 1010 273 1010 364 1010 c 1
 364 919 364 827 364 736 c 1
 300 736 l 1
 300 946 l 1
EndSplineSet
EndChar

StartChar: uni231D.big3
Encoding: 63 -1 63
Width: 472
Flags: W
HStem: 1093 64<90 318>
VStem: 318 64<865 1093>
LayerCount: 2
Back
Fore
SplineSet
318 1093 m 1
 90 1093 l 1
 90 1157 l 1
 187 1157 285 1157 382 1157 c 1
 382 1060 382 962 382 865 c 1
 318 865 l 1
 318 1093 l 1
EndSplineSet
EndChar

StartChar: uni231D.big4
Encoding: 64 -1 64
Width: 508
Flags: W
HStem: 1387 64<90 354>
VStem: 354 64<1123 1387>
LayerCount: 2
Back
Fore
SplineSet
354 1387 m 1
 90 1387 l 1
 90 1451 l 1
 199 1451 309 1451 418 1451 c 1
 418 1342 418 1232 418 1123 c 1
 354 1123 l 1
 354 1387 l 1
EndSplineSet
EndChar

StartChar: uni231D.big5
Encoding: 65 -1 65
Width: 544
Flags: W
HStem: 1681 64<90 390>
VStem: 390 64<1381 1681>
LayerCount: 2
Back
Fore
SplineSet
390 1681 m 1
 90 1681 l 1
 90 1745 l 1
 211 1745 333 1745 454 1745 c 1
 454 1624 454 1502 454 1381 c 1
 390 1381 l 1
 390 1681 l 1
EndSplineSet
EndChar

StartChar: uni231E
Encoding: 66 8990 66
Width: 424
Flags: W
HStem: -215 64<154 334>
VStem: 90 64<-151 29>
LayerCount: 2
Back
Fore
SplineSet
154 -151 m 1
 334 -151 l 1
 334 -215 l 1
 253 -215 171 -215 90 -215 c 1
 90 -134 90 -52 90 29 c 1
 154 29 l 1
 154 -151 l 1
EndSplineSet
EndChar

StartChar: uni231E.big1
Encoding: 67 -1 67
Width: 436
Flags: W
HStem: -313 64<154 346>
VStem: 90 64<-249 -57>
LayerCount: 2
Back
Fore
SplineSet
154 -249 m 1
 346 -249 l 1
 346 -313 l 1
 261 -313 175 -313 90 -313 c 1
 90 -228 90 -142 90 -57 c 1
 154 -57 l 1
 154 -249 l 1
EndSplineSet
EndChar

StartChar: uni231E.big2
Encoding: 68 -1 68
Width: 454
Flags: W
HStem: -460 64<154 364>
VStem: 90 64<-396 -186>
LayerCount: 2
Back
Fore
SplineSet
154 -396 m 1
 364 -396 l 1
 364 -460 l 1
 273 -460 181 -460 90 -460 c 1
 90 -369 90 -277 90 -186 c 1
 154 -186 l 1
 154 -396 l 1
EndSplineSet
EndChar

StartChar: uni231E.big3
Encoding: 69 -1 69
Width: 472
Flags: W
HStem: -607 64<154 382>
VStem: 90 64<-543 -315>
LayerCount: 2
Back
Fore
SplineSet
154 -543 m 1
 382 -543 l 1
 382 -607 l 1
 285 -607 187 -607 90 -607 c 1
 90 -510 90 -412 90 -315 c 1
 154 -315 l 1
 154 -543 l 1
EndSplineSet
EndChar

StartChar: uni231E.big4
Encoding: 70 -1 70
Width: 508
Flags: W
HStem: -901 64<154 418>
VStem: 90 64<-837 -573>
LayerCount: 2
Back
Fore
SplineSet
154 -837 m 1
 418 -837 l 1
 418 -901 l 1
 309 -901 199 -901 90 -901 c 1
 90 -792 90 -682 90 -573 c 1
 154 -573 l 1
 154 -837 l 1
EndSplineSet
EndChar

StartChar: uni231E.big5
Encoding: 71 -1 71
Width: 544
Flags: W
HStem: -1195 64<154 454>
VStem: 90 64<-1131 -831>
LayerCount: 2
Back
Fore
SplineSet
154 -1131 m 1
 454 -1131 l 1
 454 -1195 l 1
 333 -1195 211 -1195 90 -1195 c 1
 90 -1074 90 -952 90 -831 c 1
 154 -831 l 1
 154 -1131 l 1
EndSplineSet
EndChar

StartChar: uni231F
Encoding: 72 8991 72
Width: 424
Flags: W
HStem: -215 64<90 270>
VStem: 270 64<-151 29>
LayerCount: 2
Back
Fore
SplineSet
334 -215 m 1
 253 -215 171 -215 90 -215 c 1
 90 -151 l 1
 270 -151 l 1
 270 29 l 1
 334 29 l 1
 334 -52 334 -134 334 -215 c 1
EndSplineSet
EndChar

StartChar: uni231F.big1
Encoding: 73 -1 73
Width: 436
Flags: W
HStem: -313 64<90 282>
VStem: 282 64<-249 -57>
LayerCount: 2
Back
Fore
SplineSet
346 -313 m 1
 261 -313 175 -313 90 -313 c 1
 90 -249 l 1
 282 -249 l 1
 282 -57 l 1
 346 -57 l 1
 346 -142 346 -228 346 -313 c 1
EndSplineSet
EndChar

StartChar: uni231F.big2
Encoding: 74 -1 74
Width: 454
Flags: W
HStem: -460 64<90 300>
VStem: 300 64<-396 -186>
LayerCount: 2
Back
Fore
SplineSet
364 -460 m 1
 273 -460 181 -460 90 -460 c 1
 90 -396 l 1
 300 -396 l 1
 300 -186 l 1
 364 -186 l 1
 364 -277 364 -369 364 -460 c 1
EndSplineSet
EndChar

StartChar: uni231F.big3
Encoding: 75 -1 75
Width: 472
Flags: W
HStem: -607 64<90 318>
VStem: 318 64<-543 -315>
LayerCount: 2
Back
Fore
SplineSet
382 -607 m 1
 285 -607 187 -607 90 -607 c 1
 90 -543 l 1
 318 -543 l 1
 318 -315 l 1
 382 -315 l 1
 382 -412 382 -510 382 -607 c 1
EndSplineSet
EndChar

StartChar: uni231F.big4
Encoding: 76 -1 76
Width: 508
Flags: W
HStem: -901 64<90 354>
VStem: 354 64<-837 -573>
LayerCount: 2
Back
Fore
SplineSet
418 -901 m 1
 309 -901 199 -901 90 -901 c 1
 90 -837 l 1
 354 -837 l 1
 354 -573 l 1
 418 -573 l 1
 418 -682 418 -792 418 -901 c 1
EndSplineSet
EndChar

StartChar: uni231F.big5
Encoding: 77 -1 77
Width: 544
Flags: W
HStem: -1195 64<90 390>
VStem: 390 64<-1131 -831>
LayerCount: 2
Back
Fore
SplineSet
454 -1195 m 1
 333 -1195 211 -1195 90 -1195 c 1
 90 -1131 l 1
 390 -1131 l 1
 390 -831 l 1
 454 -831 l 1
 454 -952 454 -1074 454 -1195 c 1
EndSplineSet
EndChar

StartChar: sym0A0
Encoding: 78 -1 78
Width: 424
Flags: W
HStem: -215 64<154 334> 701 64<154 334>
VStem: 90 64<-151 29 521 701>
LayerCount: 2
Back
Fore
SplineSet
154 -151 m 1
 334 -151 l 1
 334 -215 l 1
 253 -215 171 -215 90 -215 c 1
 90 -134 90 -52 90 29 c 1
 154 29 l 1
 154 -151 l 1
90 765 m 1
 171 765 253 765 334 765 c 1
 334 701 l 1
 154 701 l 1
 154 521 l 1
 90 521 l 1
 90 602 90 684 90 765 c 1
EndSplineSet
EndChar

StartChar: sym0A0.big1
Encoding: 79 -1 79
Width: 436
Flags: W
HStem: -313 64<154 346> 799 64<154 346>
VStem: 90 64<-249 -57 607 799>
LayerCount: 2
Back
Fore
SplineSet
154 -249 m 1
 346 -249 l 1
 346 -313 l 1
 261 -313 175 -313 90 -313 c 1
 90 -228 90 -142 90 -57 c 1
 154 -57 l 1
 154 -249 l 1
90 863 m 1
 175 863 261 863 346 863 c 1
 346 799 l 1
 154 799 l 1
 154 607 l 1
 90 607 l 1
 90 692 90 778 90 863 c 1
EndSplineSet
EndChar

StartChar: sym0A0.big2
Encoding: 80 -1 80
Width: 454
Flags: W
HStem: -460 64<154 364> 946 64<154 364>
VStem: 90 64<-396 -186 736 946>
LayerCount: 2
Back
Fore
SplineSet
154 -396 m 1
 364 -396 l 1
 364 -460 l 1
 273 -460 181 -460 90 -460 c 1
 90 -369 90 -277 90 -186 c 1
 154 -186 l 1
 154 -396 l 1
90 1010 m 1
 181 1010 273 1010 364 1010 c 1
 364 946 l 1
 154 946 l 1
 154 736 l 1
 90 736 l 1
 90 827 90 919 90 1010 c 1
EndSplineSet
EndChar

StartChar: sym0A0.big3
Encoding: 81 -1 81
Width: 472
Flags: W
HStem: -607 64<154 382> 1093 64<154 382>
VStem: 90 64<-543 -315 865 1093>
LayerCount: 2
Back
Fore
SplineSet
154 -543 m 1
 382 -543 l 1
 382 -607 l 1
 285 -607 187 -607 90 -607 c 1
 90 -510 90 -412 90 -315 c 1
 154 -315 l 1
 154 -543 l 1
90 1157 m 1
 187 1157 285 1157 382 1157 c 1
 382 1093 l 1
 154 1093 l 1
 154 865 l 1
 90 865 l 1
 90 962 90 1060 90 1157 c 1
EndSplineSet
EndChar

StartChar: sym0A0.big4
Encoding: 82 -1 82
Width: 508
Flags: W
HStem: -901 64<154 418> 1387 64<154 418>
VStem: 90 64<-837 -573 1123 1387>
LayerCount: 2
Back
Fore
SplineSet
154 -837 m 1
 418 -837 l 1
 418 -901 l 1
 309 -901 199 -901 90 -901 c 1
 90 -792 90 -682 90 -573 c 1
 154 -573 l 1
 154 -837 l 1
90 1451 m 1
 199 1451 309 1451 418 1451 c 1
 418 1387 l 1
 154 1387 l 1
 154 1123 l 1
 90 1123 l 1
 90 1232 90 1342 90 1451 c 1
EndSplineSet
EndChar

StartChar: sym0A0.big5
Encoding: 83 -1 83
Width: 544
Flags: W
HStem: -1195 64<154 454> 1681 64<154 454>
VStem: 90 64<-1131 -831 1381 1681>
LayerCount: 2
Back
Fore
SplineSet
154 -1131 m 1
 454 -1131 l 1
 454 -1195 l 1
 333 -1195 211 -1195 90 -1195 c 1
 90 -1074 90 -952 90 -831 c 1
 154 -831 l 1
 154 -1131 l 1
90 1745 m 1
 211 1745 333 1745 454 1745 c 1
 454 1681 l 1
 154 1681 l 1
 154 1381 l 1
 90 1381 l 1
 90 1502 90 1624 90 1745 c 1
EndSplineSet
EndChar

StartChar: sym0A1
Encoding: 84 -1 84
Width: 424
Flags: W
HStem: -215 64<90 270> 701 64<90 270>
VStem: 270 64<-151 29 521 701>
LayerCount: 2
Back
Fore
SplineSet
334 -215 m 1
 253 -215 171 -215 90 -215 c 1
 90 -151 l 1
 270 -151 l 1
 270 29 l 1
 334 29 l 1
 334 -52 334 -134 334 -215 c 1
270 701 m 1
 90 701 l 1
 90 765 l 1
 171 765 253 765 334 765 c 1
 334 684 334 602 334 521 c 1
 270 521 l 1
 270 701 l 1
EndSplineSet
EndChar

StartChar: sym0A1.big1
Encoding: 85 -1 85
Width: 436
Flags: W
HStem: -313 64<90 282> 799 64<90 282>
VStem: 282 64<-249 -57 607 799>
LayerCount: 2
Back
Fore
SplineSet
346 -313 m 1
 261 -313 175 -313 90 -313 c 1
 90 -249 l 1
 282 -249 l 1
 282 -57 l 1
 346 -57 l 1
 346 -142 346 -228 346 -313 c 1
282 799 m 1
 90 799 l 1
 90 863 l 1
 175 863 261 863 346 863 c 1
 346 778 346 692 346 607 c 1
 282 607 l 1
 282 799 l 1
EndSplineSet
EndChar

StartChar: sym0A1.big2
Encoding: 86 -1 86
Width: 454
Flags: W
HStem: -460 64<90 300> 946 64<90 300>
VStem: 300 64<-396 -186 736 946>
LayerCount: 2
Back
Fore
SplineSet
364 -460 m 1
 273 -460 181 -460 90 -460 c 1
 90 -396 l 1
 300 -396 l 1
 300 -186 l 1
 364 -186 l 1
 364 -277 364 -369 364 -460 c 1
300 946 m 1
 90 946 l 1
 90 1010 l 1
 181 1010 273 1010 364 1010 c 1
 364 919 364 827 364 736 c 1
 300 736 l 1
 300 946 l 1
EndSplineSet
EndChar

StartChar: sym0A1.big3
Encoding: 87 -1 87
Width: 472
Flags: W
HStem: -607 64<90 318> 1093 64<90 318>
VStem: 318 64<-543 -315 865 1093>
LayerCount: 2
Back
Fore
SplineSet
382 -607 m 1
 285 -607 187 -607 90 -607 c 1
 90 -543 l 1
 318 -543 l 1
 318 -315 l 1
 382 -315 l 1
 382 -412 382 -510 382 -607 c 1
318 1093 m 1
 90 1093 l 1
 90 1157 l 1
 187 1157 285 1157 382 1157 c 1
 382 1060 382 962 382 865 c 1
 318 865 l 1
 318 1093 l 1
EndSplineSet
EndChar

StartChar: sym0A1.big4
Encoding: 88 -1 88
Width: 508
Flags: W
HStem: -901 64<90 354> 1387 64<90 354>
VStem: 354 64<-837 -573 1123 1387>
LayerCount: 2
Back
Fore
SplineSet
418 -901 m 1
 309 -901 199 -901 90 -901 c 1
 90 -837 l 1
 354 -837 l 1
 354 -573 l 1
 418 -573 l 1
 418 -682 418 -792 418 -901 c 1
354 1387 m 1
 90 1387 l 1
 90 1451 l 1
 199 1451 309 1451 418 1451 c 1
 418 1342 418 1232 418 1123 c 1
 354 1123 l 1
 354 1387 l 1
EndSplineSet
EndChar

StartChar: sym0A1.big5
Encoding: 89 -1 89
Width: 544
Flags: W
HStem: -1195 64<90 390> 1681 64<90 390>
VStem: 390 64<-1131 -831 1381 1681>
LayerCount: 2
Back
Fore
SplineSet
454 -1195 m 1
 333 -1195 211 -1195 90 -1195 c 1
 90 -1131 l 1
 390 -1131 l 1
 390 -831 l 1
 454 -831 l 1
 454 -952 454 -1074 454 -1195 c 1
390 1681 m 1
 90 1681 l 1
 90 1745 l 1
 211 1745 333 1745 454 1745 c 1
 454 1624 454 1502 454 1381 c 1
 390 1381 l 1
 390 1681 l 1
EndSplineSet
EndChar

StartChar: uni23A1
Encoding: 90 9121 90
Width: 544
Flags: W
HStem: 505 64<154 454>
VStem: 90 64<-51 505>
LayerCount: 2
Back
Fore
SplineSet
154 -51 m 1
 90 -51 l 1
 90 156 90 362 90 569 c 1
 211 569 333 569 454 569 c 1
 454 505 l 1
 154 505 l 1
 154 -51 l 1
EndSplineSet
EndChar

StartChar: uni23A4
Encoding: 91 9124 91
Width: 544
Flags: W
HStem: 505 64<90 390>
VStem: 390 64<-51 505>
LayerCount: 2
Back
Fore
SplineSet
454 569 m 1
 454 362 454 156 454 -51 c 1
 390 -51 l 1
 390 505 l 1
 90 505 l 1
 90 569 l 1
 211 569 333 569 454 569 c 1
EndSplineSet
EndChar

StartChar: uni23A3
Encoding: 92 9123 92
Width: 544
Flags: W
HStem: -19 64<154 454>
VStem: 90 64<45 601>
LayerCount: 2
Back
Fore
SplineSet
154 45 m 1
 454 45 l 1
 454 -19 l 1
 333 -19 211 -19 90 -19 c 1
 90 188 90 394 90 601 c 1
 154 601 l 1
 154 45 l 1
EndSplineSet
EndChar

StartChar: uni23A6
Encoding: 93 9126 93
Width: 544
Flags: W
HStem: -19 64<90 390>
VStem: 390 64<45 601>
LayerCount: 2
Back
Fore
SplineSet
454 -19 m 1
 333 -19 211 -19 90 -19 c 1
 90 45 l 1
 390 45 l 1
 390 601 l 1
 454 601 l 1
 454 394 454 188 454 -19 c 1
EndSplineSet
EndChar

StartChar: uni23A2
Encoding: 94 9122 94
Width: 544
Flags: W
VStem: 90 64<96 454>
LayerCount: 2
Back
Fore
SplineSet
154 96 m 1
 90 96 l 1
 90 454 l 1
 154 454 l 1
 154 96 l 1
EndSplineSet
EndChar

StartChar: uni23A5
Encoding: 95 9125 95
Width: 544
Flags: W
VStem: 390 64<96 454>
LayerCount: 2
Back
Fore
SplineSet
390 96 m 1
 390 454 l 1
 454 454 l 1
 454 96 l 1
 390 96 l 1
EndSplineSet
EndChar

StartChar: uni27E6
Encoding: 96 10214 96
Width: 488
Flags: W
HStem: -215 64<154 244 308 398> 701 64<154 244 308 398>
VStem: 90 64<-151 701> 244 64<-151 701>
LayerCount: 2
Back
Fore
SplineSet
244 -151 m 1
 244 701 l 1
 154 701 l 1
 154 -151 l 1
 244 -151 l 1
398 -215 m 1
 295 -215 193 -215 90 -215 c 1
 90 765 l 1
 193 765 295 765 398 765 c 1
 398 701 l 1
 308 701 l 1
 308 -151 l 1
 398 -151 l 1
 398 -215 l 1
EndSplineSet
EndChar

StartChar: uni27E6.big1
Encoding: 97 -1 97
Width: 500
Flags: W
HStem: -313 64<154 250 314 410> 799 64<154 250 314 410>
VStem: 90 64<-249 799> 250 64<-249 799>
LayerCount: 2
Back
Fore
SplineSet
250 -249 m 1
 250 799 l 1
 154 799 l 1
 154 -249 l 1
 250 -249 l 1
410 -313 m 1
 303 -313 197 -313 90 -313 c 1
 90 863 l 1
 197 863 303 863 410 863 c 1
 410 799 l 1
 314 799 l 1
 314 -249 l 1
 410 -249 l 1
 410 -313 l 1
EndSplineSet
EndChar

StartChar: uni27E6.big2
Encoding: 98 -1 98
Width: 518
Flags: W
HStem: -460 64<154 259 323 428> 946 64<154 259 323 428>
VStem: 90 64<-396 946> 259 64<-396 946>
LayerCount: 2
Back
Fore
SplineSet
259 -396 m 1
 259 946 l 1
 154 946 l 1
 154 -396 l 1
 259 -396 l 1
428 -460 m 1
 315 -460 203 -460 90 -460 c 1
 90 1010 l 1
 203 1010 315 1010 428 1010 c 1
 428 946 l 1
 323 946 l 1
 323 -396 l 1
 428 -396 l 1
 428 -460 l 1
EndSplineSet
EndChar

StartChar: uni27E6.big3
Encoding: 99 -1 99
Width: 536
Flags: W
HStem: -607 64<154 268 332 446> 1093 64<154 268 332 446>
VStem: 90 64<-543 1093> 268 64<-543 1093>
LayerCount: 2
Back
Fore
SplineSet
268 -543 m 1
 268 1093 l 1
 154 1093 l 1
 154 -543 l 1
 268 -543 l 1
446 -607 m 1
 327 -607 209 -607 90 -607 c 1
 90 1157 l 1
 209 1157 327 1157 446 1157 c 1
 446 1093 l 1
 332 1093 l 1
 332 -543 l 1
 446 -543 l 1
 446 -607 l 1
EndSplineSet
EndChar

StartChar: uni27E6.big4
Encoding: 100 -1 100
Width: 572
Flags: W
HStem: -901 64<154 286 350 482> 1387 64<154 286 350 482>
VStem: 90 64<-837 1387> 286 64<-837 1387>
LayerCount: 2
Back
Fore
SplineSet
286 -837 m 1
 286 1387 l 1
 154 1387 l 1
 154 -837 l 1
 286 -837 l 1
482 -901 m 1
 351 -901 221 -901 90 -901 c 1
 90 1451 l 1
 221 1451 351 1451 482 1451 c 1
 482 1387 l 1
 350 1387 l 1
 350 -837 l 1
 482 -837 l 1
 482 -901 l 1
EndSplineSet
EndChar

StartChar: uni27E6.big5
Encoding: 101 -1 101
Width: 608
Flags: W
HStem: -1195 64<154 304 368 518> 1681 64<154 304 368 518>
VStem: 90 64<-1131 1681> 304 64<-1131 1681>
LayerCount: 2
Back
Fore
SplineSet
304 -1131 m 1
 304 1681 l 1
 154 1681 l 1
 154 -1131 l 1
 304 -1131 l 1
518 -1195 m 1
 375 -1195 233 -1195 90 -1195 c 1
 90 1745 l 1
 233 1745 375 1745 518 1745 c 1
 518 1681 l 1
 368 1681 l 1
 368 -1131 l 1
 518 -1131 l 1
 518 -1195 l 1
EndSplineSet
EndChar

StartChar: uni27E7
Encoding: 102 10215 102
Width: 488
Flags: W
HStem: -215 64<90 180 244 334> 701 64<90 180 244 334>
VStem: 180 64<-151 701> 334 64<-151 701>
LayerCount: 2
Back
Fore
SplineSet
244 -151 m 1
 334 -151 l 1
 334 701 l 1
 244 701 l 1
 244 -151 l 1
180 -151 m 1
 180 701 l 1
 90 701 l 1
 90 765 l 1
 193 765 295 765 398 765 c 1
 398 -215 l 1
 295 -215 193 -215 90 -215 c 1
 90 -151 l 1
 180 -151 l 1
EndSplineSet
EndChar

StartChar: uni27E7.big1
Encoding: 103 -1 103
Width: 500
Flags: W
HStem: -313 64<90 186 250 346> 799 64<90 186 250 346>
VStem: 186 64<-249 799> 346 64<-249 799>
LayerCount: 2
Back
Fore
SplineSet
250 -249 m 1
 346 -249 l 1
 346 799 l 1
 250 799 l 1
 250 -249 l 1
186 -249 m 1
 186 799 l 1
 90 799 l 1
 90 863 l 1
 197 863 303 863 410 863 c 1
 410 -313 l 1
 303 -313 197 -313 90 -313 c 1
 90 -249 l 1
 186 -249 l 1
EndSplineSet
EndChar

StartChar: uni27E7.big2
Encoding: 104 -1 104
Width: 518
Flags: W
HStem: -460 64<90 195 259 364> 946 64<90 195 259 364>
VStem: 195 64<-396 946> 364 64<-396 946>
LayerCount: 2
Back
Fore
SplineSet
259 -396 m 1
 364 -396 l 1
 364 946 l 1
 259 946 l 1
 259 -396 l 1
195 -396 m 1
 195 946 l 1
 90 946 l 1
 90 1010 l 1
 203 1010 315 1010 428 1010 c 1
 428 -460 l 1
 315 -460 203 -460 90 -460 c 1
 90 -396 l 1
 195 -396 l 1
EndSplineSet
EndChar

StartChar: uni27E7.big3
Encoding: 105 -1 105
Width: 536
Flags: W
HStem: -607 64<90 204 268 382> 1093 64<90 204 268 382>
VStem: 204 64<-543 1093> 382 64<-543 1093>
LayerCount: 2
Back
Fore
SplineSet
268 -543 m 1
 382 -543 l 1
 382 1093 l 1
 268 1093 l 1
 268 -543 l 1
204 -543 m 1
 204 1093 l 1
 90 1093 l 1
 90 1157 l 1
 209 1157 327 1157 446 1157 c 1
 446 -607 l 1
 327 -607 209 -607 90 -607 c 1
 90 -543 l 1
 204 -543 l 1
EndSplineSet
EndChar

StartChar: uni27E7.big4
Encoding: 106 -1 106
Width: 572
Flags: W
HStem: -901 64<90 222 286 418> 1387 64<90 222 286 418>
VStem: 222 64<-837 1387> 418 64<-837 1387>
LayerCount: 2
Back
Fore
SplineSet
286 -837 m 1
 418 -837 l 1
 418 1387 l 1
 286 1387 l 1
 286 -837 l 1
222 -837 m 1
 222 1387 l 1
 90 1387 l 1
 90 1451 l 1
 221 1451 351 1451 482 1451 c 1
 482 -901 l 1
 351 -901 221 -901 90 -901 c 1
 90 -837 l 1
 222 -837 l 1
EndSplineSet
EndChar

StartChar: uni27E7.big5
Encoding: 107 -1 107
Width: 608
Flags: W
HStem: -1195 64<90 240 304 454> 1681 64<90 240 304 454>
VStem: 240 64<-1131 1681> 454 64<-1131 1681>
LayerCount: 2
Back
Fore
SplineSet
304 -1131 m 1
 454 -1131 l 1
 454 1681 l 1
 304 1681 l 1
 304 -1131 l 1
240 -1131 m 1
 240 1681 l 1
 90 1681 l 1
 90 1745 l 1
 233 1745 375 1745 518 1745 c 1
 518 -1195 l 1
 375 -1195 233 -1195 90 -1195 c 1
 90 -1131 l 1
 240 -1131 l 1
EndSplineSet
EndChar

StartChar: sym0A2
Encoding: 108 -1 108
Width: 608
Flags: W
HStem: 505 64<154 304 368 518>
VStem: 90 64<-51 505> 304 64<-51 505>
LayerCount: 2
Back
Fore
SplineSet
368 -51 m 1
 304 -51 l 1
 304 505 l 1
 154 505 l 1
 154 -51 l 1
 90 -51 l 1
 90 156 90 362 90 569 c 1
 233 569 375 569 518 569 c 1
 518 505 l 1
 368 505 l 1
 368 -51 l 1
EndSplineSet
EndChar

StartChar: sym0A5
Encoding: 109 -1 109
Width: 608
Flags: W
HStem: 505 64<90 240 304 454>
VStem: 240 64<-51 505> 454 64<-51 505>
LayerCount: 2
Back
Fore
SplineSet
304 -51 m 1
 240 -51 l 1
 240 505 l 1
 90 505 l 1
 90 569 l 1
 233 569 375 569 518 569 c 1
 518 362 518 156 518 -51 c 1
 454 -51 l 1
 454 505 l 1
 304 505 l 1
 304 -51 l 1
EndSplineSet
EndChar

StartChar: sym0A4
Encoding: 110 -1 110
Width: 608
Flags: W
HStem: -19 64<154 304 368 518>
VStem: 90 64<45 601> 304 64<45 601>
LayerCount: 2
Back
Fore
SplineSet
518 -19 m 1
 375 -19 233 -19 90 -19 c 1
 90 188 90 394 90 601 c 1
 154 601 l 1
 154 45 l 1
 304 45 l 1
 304 601 l 1
 368 601 l 1
 368 45 l 1
 518 45 l 1
 518 -19 l 1
EndSplineSet
EndChar

StartChar: sym0A7
Encoding: 111 -1 111
Width: 608
Flags: W
HStem: -19 64<90 240 304 454>
VStem: 240 64<45 601> 454 64<45 601>
LayerCount: 2
Back
Fore
SplineSet
240 45 m 1
 240 601 l 1
 304 601 l 1
 304 45 l 1
 454 45 l 1
 454 601 l 1
 518 601 l 1
 518 394 518 188 518 -19 c 1
 375 -19 233 -19 90 -19 c 1
 90 45 l 1
 240 45 l 1
EndSplineSet
EndChar

StartChar: sym0A3
Encoding: 112 -1 112
Width: 544
Flags: W
VStem: 90 64<96 454> 272 64<96 454>
LayerCount: 2
Back
Fore
SplineSet
154 96 m 1
 90 96 l 1
 90 454 l 1
 154 454 l 1
 154 96 l 1
336 96 m 1
 272 96 l 1
 272 454 l 1
 336 454 l 1
 336 96 l 1
EndSplineSet
EndChar

StartChar: sym0A6
Encoding: 113 -1 113
Width: 544
Flags: W
VStem: 208 64<96 454> 390 64<96 454>
LayerCount: 2
Back
Fore
SplineSet
390 96 m 1
 390 454 l 1
 454 454 l 1
 454 96 l 1
 390 96 l 1
272 96 m 1
 208 96 l 1
 208 454 l 1
 272 454 l 1
 272 96 l 1
EndSplineSet
EndChar

StartChar: braceleft
Encoding: 114 123 114
Width: 469
Flags: W
HStem: -215 53<312.356 379> 246 58<90 160.878> 712 53<312.356 379>
VStem: 203 64<-117.335 203.848 346.152 667.335>
CounterMasks: 1 e0
LayerCount: 2
Back
Fore
SplineSet
379 712 m 1
 318 712 267 665 267 605 c 2
 267 403 l 2
 267 349 237 303 192 275 c 1
 237 247 267 201 267 147 c 2
 267 -55 l 2
 267 -115 318 -162 379 -162 c 1
 379 -215 l 1
 284 -215 203 -146 203 -55 c 2
 203 147 l 2
 203 204 150 246 90 246 c 1
 90 304 l 1
 150 304 203 346 203 403 c 2
 203 605 l 2
 203 696 284 765 379 765 c 1
 379 712 l 1
EndSplineSet
EndChar

StartChar: braceleft.big1
Encoding: 115 -1 115
Width: 481
Flags: W
HStem: -313 53<321.219 391> 246 58<90 162.318> 810 53<321.219 391>
VStem: 209 64<-210.546 201.957 348.043 760.546>
CounterMasks: 1 e0
LayerCount: 2
Back
Fore
SplineSet
391 810 m 1
 327 810 273 761 273 699 c 2
 273 407 l 2
 273 351 242 303 195 275 c 1
 242 247 273 199 273 143 c 2
 273 -149 l 2
 273 -211 327 -260 391 -260 c 1
 391 -313 l 1
 293 -313 209 -243 209 -149 c 2
 209 143 l 2
 209 203 153 246 90 246 c 1
 90 304 l 1
 153 304 209 347 209 407 c 2
 209 699 l 2
 209 793 293 863 391 863 c 1
 391 810 l 1
EndSplineSet
EndChar

StartChar: braceleft.big2
Encoding: 116 -1 116
Width: 499
Flags: W
HStem: -460 53<336.125 409> 246 58<90 164.998> 957 53<336.125 409>
VStem: 218 64<-354.029 196.565 353.435 904.029>
CounterMasks: 1 e0
LayerCount: 2
Back
Fore
SplineSet
409 957 m 1
 340 957 282 906 282 840 c 2
 282 413 l 2
 282 354 249 304 199 275 c 1
 249 246 282 196 282 137 c 2
 282 -290 l 2
 282 -356 340 -407 409 -407 c 1
 409 -460 l 1
 307 -460 218 -388 218 -290 c 2
 218 137 l 2
 218 201 157 246 90 246 c 1
 90 304 l 1
 157 304 218 349 218 413 c 2
 218 840 l 2
 218 938 307 1010 409 1010 c 1
 409 957 l 1
EndSplineSet
EndChar

StartChar: braceleft.big3
Encoding: 117 -1 117
Width: 517
Flags: W
HStem: -607 53<351.889 427> 246 58<90 170.395> 1104 53<351.889 427>
VStem: 227 64<-497.512 192.18 357.82 1047.51>
CounterMasks: 1 e0
LayerCount: 2
Back
Fore
SplineSet
427 1104 m 1
 354 1104 291 1051 291 981 c 2
 291 419 l 2
 291 356 255 305 202 275 c 1
 255 245 291 194 291 131 c 2
 291 -431 l 2
 291 -501 354 -554 427 -554 c 1
 427 -607 l 1
 320 -607 227 -533 227 -431 c 2
 227 131 l 2
 227 198 162 246 90 246 c 1
 90 304 l 1
 162 304 227 352 227 419 c 2
 227 981 l 2
 227 1083 320 1157 427 1157 c 1
 427 1104 l 1
EndSplineSet
EndChar

StartChar: braceleft.big4
Encoding: 118 -1 118
Width: 553
Flags: W
HStem: -901 53<381.346 463> 246 58<90 174.639> 1398 53<381.346 463>
VStem: 245 64<-780.112 184.375 365.625 1330.11>
CounterMasks: 1 e0
LayerCount: 2
Back
Fore
SplineSet
463 1398 m 1
 381 1398 309 1341 309 1263 c 2
 309 431 l 2
 309 362 267 307 208 275 c 1
 267 243 309 188 309 119 c 2
 309 -713 l 2
 309 -791 381 -848 463 -848 c 1
 463 -901 l 1
 347 -901 245 -823 245 -713 c 2
 245 119 l 2
 245 194 171 246 90 246 c 1
 90 304 l 1
 171 304 245 356 245 431 c 2
 245 1263 l 2
 245 1373 347 1451 463 1451 c 1
 463 1398 l 1
EndSplineSet
EndChar

StartChar: braceleft.big5
Encoding: 119 -1 119
Width: 589
Flags: W
HStem: -1195 53<409.391 499> 246 58<90 180.792> 1692 53<409.391 499>
VStem: 263 64<-1066.79 175.559 374.441 1616.79>
CounterMasks: 1 e0
LayerCount: 2
Back
Fore
SplineSet
499 1692 m 1
 408 1692 327 1631 327 1545 c 2
 327 443 l 2
 327 368 281 308 215 275 c 1
 281 242 327 182 327 107 c 2
 327 -995 l 2
 327 -1081 408 -1142 499 -1142 c 1
 499 -1195 l 1
 374 -1195 263 -1113 263 -995 c 2
 263 107 l 2
 263 190 180 246 90 246 c 1
 90 304 l 1
 180 304 263 360 263 443 c 2
 263 1545 l 2
 263 1663 374 1745 499 1745 c 1
 499 1692 l 1
EndSplineSet
EndChar

StartChar: braceright
Encoding: 120 125 120
Width: 469
Flags: W
HStem: -215 53<90 157.005> 246 58<308.528 379> 712 53<90 157.005>
VStem: 203 64<-114.754 205.321 344.679 664.754>
CounterMasks: 1 e0
LayerCount: 2
Back
Fore
SplineSet
90 -162 m 1
 151 -162 203 -115 203 -55 c 2
 203 147 l 2
 203 201 233 247 277 275 c 1
 233 303 203 349 203 403 c 2
 203 605 l 2
 203 665 151 712 90 712 c 1
 90 765 l 1
 185 765 267 696 267 605 c 2
 267 403 l 2
 267 346 319 304 379 304 c 1
 379 246 l 1
 319 246 267 204 267 147 c 2
 267 -55 l 2
 267 -146 185 -215 90 -215 c 1
 90 -162 l 1
EndSplineSet
EndChar

StartChar: braceright.big1
Encoding: 121 -1 121
Width: 481
Flags: W
HStem: -313 53<90 159.938> 246 58<319.066 391> 810 53<90 159.938>
VStem: 209 64<-210.546 201.957 348.043 760.546>
CounterMasks: 1 e0
LayerCount: 2
Back
Fore
SplineSet
90 -260 m 1
 154 -260 209 -211 209 -149 c 2
 209 143 l 2
 209 199 240 247 286 275 c 1
 240 303 209 351 209 407 c 2
 209 699 l 2
 209 761 154 810 90 810 c 1
 90 863 l 1
 188 863 273 793 273 699 c 2
 273 407 l 2
 273 347 328 304 391 304 c 1
 391 246 l 1
 328 246 273 203 273 143 c 2
 273 -149 l 2
 273 -243 188 -313 90 -313 c 1
 90 -260 l 1
EndSplineSet
EndChar

StartChar: braceright.big2
Encoding: 122 -1 122
Width: 499
Flags: W
HStem: -460 53<90 163.031> 246 58<334.363 409> 957 53<90 163.031>
VStem: 218 64<-353.674 197.432 352.568 903.674>
CounterMasks: 1 e0
LayerCount: 2
Back
Fore
SplineSet
90 -407 m 1
 159 -407 218 -356 218 -290 c 2
 218 137 l 2
 218 196 252 246 301 275 c 1
 252 304 218 354 218 413 c 2
 218 840 l 2
 218 906 159 957 90 957 c 1
 90 1010 l 1
 192 1010 282 938 282 840 c 2
 282 413 l 2
 282 349 342 304 409 304 c 1
 409 246 l 1
 342 246 282 201 282 137 c 2
 282 -290 l 2
 282 -388 192 -460 90 -460 c 1
 90 -407 l 1
EndSplineSet
EndChar

StartChar: braceright.big3
Encoding: 123 -1 123
Width: 517
Flags: W
HStem: -607 53<90 165.428> 246 58<346.966 427> 1104 53<90 165.428>
VStem: 227 64<-495.699 192.18 357.82 1045.7>
CounterMasks: 1 e0
LayerCount: 2
Back
Fore
SplineSet
90 -554 m 1
 163 -554 227 -501 227 -431 c 2
 227 131 l 2
 227 194 263 245 316 275 c 1
 263 305 227 356 227 419 c 2
 227 981 l 2
 227 1051 163 1104 90 1104 c 1
 90 1157 l 1
 197 1157 291 1083 291 981 c 2
 291 419 l 2
 291 352 355 304 427 304 c 1
 427 246 l 1
 355 246 291 198 291 131 c 2
 291 -431 l 2
 291 -533 197 -607 90 -607 c 1
 90 -554 l 1
EndSplineSet
EndChar

StartChar: braceright.big4
Encoding: 124 -1 124
Width: 553
Flags: W
HStem: -901 53<90 171.949> 246 58<378.678 463> 1398 53<90 171.949>
VStem: 245 64<-780.112 184.375 365.625 1330.11>
CounterMasks: 1 e0
LayerCount: 2
Back
Fore
SplineSet
90 -848 m 1
 172 -848 245 -791 245 -713 c 2
 245 119 l 2
 245 188 286 243 345 275 c 1
 286 307 245 362 245 431 c 2
 245 1263 l 2
 245 1341 172 1398 90 1398 c 1
 90 1451 l 1
 206 1451 309 1373 309 1263 c 2
 309 431 l 2
 309 356 382 304 463 304 c 1
 463 246 l 1
 382 246 309 194 309 119 c 2
 309 -713 l 2
 309 -823 206 -901 90 -901 c 1
 90 -848 l 1
EndSplineSet
EndChar

StartChar: braceright.big5
Encoding: 125 -1 125
Width: 589
Flags: W
HStem: -1195 53<90 179.766> 246 58<408.503 499> 1692 53<90 179.766>
VStem: 263 64<-1066.79 175.559 374.441 1616.79>
CounterMasks: 1 e0
LayerCount: 2
Back
Fore
SplineSet
90 -1142 m 1
 181 -1142 263 -1081 263 -995 c 2
 263 107 l 2
 263 182 309 242 375 275 c 1
 309 308 263 368 263 443 c 2
 263 1545 l 2
 263 1631 181 1692 90 1692 c 1
 90 1745 l 1
 215 1745 327 1663 327 1545 c 2
 327 443 l 2
 327 360 409 304 499 304 c 1
 499 246 l 1
 409 246 327 190 327 107 c 2
 327 -995 l 2
 327 -1113 215 -1195 90 -1195 c 1
 90 -1142 l 1
EndSplineSet
EndChar

StartChar: uni23A7
Encoding: 126 9127 126
Width: 589
Flags: W
HStem: 516 53<409.391 499>
VStem: 263 64<-51 440.788>
LayerCount: 2
Back
Fore
SplineSet
499 516 m 1
 408 516 327 455 327 369 c 2
 327 -51 l 1
 263 -51 l 1
 263 369 l 2
 263 487 374 569 499 569 c 1
 499 516 l 1
EndSplineSet
EndChar

StartChar: uni23AB
Encoding: 127 9131 127
Width: 589
Flags: W
HStem: 516 53<90 179.766>
VStem: 263 64<-51 440.788>
LayerCount: 2
Back
Fore
SplineSet
90 569 m 1
 215 569 327 487 327 369 c 2
 327 -51 l 1
 263 -51 l 1
 263 369 l 2
 263 455 181 516 90 516 c 1
 90 569 l 1
EndSplineSet
EndChar

StartChar: uni23A9
Encoding: 128 9129 128
Width: 589
Flags: W
HStem: -19 53<409.391 499>
VStem: 263 64<109.212 601>
LayerCount: 2
Back
Fore
SplineSet
499 -19 m 1
 374 -19 263 63 263 181 c 2
 263 601 l 1
 327 601 l 1
 327 181 l 2
 327 95 408 34 499 34 c 1
 499 -19 l 1
EndSplineSet
EndChar

StartChar: uni23AD
Encoding: 129 9133 129
Width: 589
Flags: W
HStem: -19 53<90 179.766>
VStem: 263 64<109.212 601>
LayerCount: 2
Back
Fore
SplineSet
90 34 m 1
 181 34 263 95 263 181 c 2
 263 601 l 1
 327 601 l 1
 327 181 l 2
 327 63 215 -19 90 -19 c 1
 90 34 l 1
EndSplineSet
EndChar

StartChar: uni23A8
Encoding: 130 9128 130
Width: 589
Flags: W
HStem: 246 58<90 180.792>
VStem: 263 64<-51 175.559 374.441 601>
LayerCount: 2
Back
Fore
SplineSet
327 601 m 1
 327 443 l 2
 327 368 281 308 215 275 c 1
 281 242 327 182 327 107 c 2
 327 -51 l 1
 263 -51 l 1
 263 107 l 2
 263 190 180 246 90 246 c 1
 90 304 l 1
 180 304 263 360 263 443 c 2
 263 601 l 1
 327 601 l 1
EndSplineSet
EndChar

StartChar: uni23AC
Encoding: 131 9132 131
Width: 589
Flags: W
HStem: 246 58<408.503 499>
VStem: 263 64<-51 175.559 374.441 601>
LayerCount: 2
Back
Fore
SplineSet
263 -51 m 1
 263 107 l 2
 263 182 309 242 375 275 c 1
 309 308 263 368 263 443 c 2
 263 601 l 1
 327 601 l 1
 327 443 l 2
 327 360 409 304 499 304 c 1
 499 246 l 1
 409 246 327 190 327 107 c 2
 327 -51 l 1
 263 -51 l 1
EndSplineSet
EndChar

StartChar: uni23AA
Encoding: 132 9130 132
Width: 589
Flags: W
VStem: 263 64<96 454>
LayerCount: 2
Back
Fore
SplineSet
263 454 m 1
 327 454 l 1
 327 96 l 1
 263 96 l 1
 263 454 l 1
EndSplineSet
EndChar

StartChar: uni27E8
Encoding: 133 10216 133
Width: 424
Flags: W
HStem: -226 21G<264.814 326.545>
VStem: 92 240
LayerCount: 2
Back
Fore
SplineSet
332 -204 m 1
 272 -226 l 1
 92 275 l 1
 272 776 l 1
 332 754 l 1
 152 275 l 1
 332 -204 l 1
EndSplineSet
EndChar

StartChar: uni27E8.big1
Encoding: 134 -1 134
Width: 436
Flags: W
VStem: 92 252
LayerCount: 2
Back
Fore
SplineSet
344 -303 m 1
 284 -323 l 1
 92 275 l 1
 284 873 l 1
 344 853 l 1
 152 275 l 1
 344 -303 l 1
EndSplineSet
EndChar

StartChar: uni27E8.big2
Encoding: 135 -1 135
Width: 454
Flags: W
VStem: 301 62<-453.032 -444.2 994.2 1003.03>
LayerCount: 2
Back
Fore
SplineSet
363 -451 m 1
 301 -469 l 1
 91 275 l 1
 301 1019 l 1
 363 1001 l 1
 153 275 l 1
 363 -451 l 1
EndSplineSet
EndChar

StartChar: uni27E8.big3
Encoding: 136 -1 136
Width: 472
Flags: W
VStem: 319 62<-600.806 -587.675 1137.68 1150.81>
LayerCount: 2
Back
Fore
SplineSet
381 -599 m 1
 319 -615 l 1
 91 275 l 1
 319 1165 l 1
 381 1149 l 1
 153 275 l 1
 381 -599 l 1
EndSplineSet
EndChar

StartChar: uni27E8.big4
Encoding: 137 -1 137
Width: 508
Flags: W
VStem: 355 62<-895.581 -876.633 1426.63 1445.58>
LayerCount: 2
Back
Fore
SplineSet
417 -894 m 1
 355 -908 l 1
 91 275 l 1
 355 1458 l 1
 417 1444 l 1
 153 275 l 1
 417 -894 l 1
EndSplineSet
EndChar

StartChar: uni27E8.big5
Encoding: 138 -1 138
Width: 544
Flags: W
VStem: 391 62<-1190.35 -1166.56 1716.56 1740.35>
LayerCount: 2
Back
Fore
SplineSet
453 -1189 m 1
 391 -1201 l 1
 91 275 l 1
 391 1751 l 1
 453 1739 l 1
 153 275 l 1
 453 -1189 l 1
EndSplineSet
EndChar

StartChar: uni27E9
Encoding: 139 10217 139
Width: 424
Flags: W
HStem: -226 21G<97.4545 159.186>
VStem: 92 240
LayerCount: 2
Back
Fore
SplineSet
152 -226 m 1
 92 -204 l 1
 272 275 l 1
 92 754 l 1
 152 776 l 1
 332 275 l 1
 152 -226 l 1
EndSplineSet
EndChar

StartChar: uni27E9.big1
Encoding: 140 -1 140
Width: 436
Flags: W
VStem: 92 252
LayerCount: 2
Back
Fore
SplineSet
152 -323 m 1
 92 -303 l 1
 284 275 l 1
 92 853 l 1
 152 873 l 1
 344 275 l 1
 152 -323 l 1
EndSplineSet
EndChar

StartChar: uni27E9.big2
Encoding: 141 -1 141
Width: 454
Flags: W
VStem: 91 272
LayerCount: 2
Back
Fore
SplineSet
153 -469 m 1
 91 -451 l 1
 301 275 l 1
 91 1001 l 1
 153 1019 l 1
 363 275 l 1
 153 -469 l 1
EndSplineSet
EndChar

StartChar: uni27E9.big3
Encoding: 142 -1 142
Width: 472
Flags: W
VStem: 91 290
LayerCount: 2
Back
Fore
SplineSet
153 -615 m 1
 91 -599 l 1
 319 275 l 1
 91 1149 l 1
 153 1165 l 1
 381 275 l 1
 153 -615 l 1
EndSplineSet
EndChar

StartChar: uni27E9.big4
Encoding: 143 -1 143
Width: 508
Flags: W
VStem: 91 326
LayerCount: 2
Back
Fore
SplineSet
153 -908 m 1
 91 -894 l 1
 355 275 l 1
 91 1444 l 1
 153 1458 l 1
 417 275 l 1
 153 -908 l 1
EndSplineSet
EndChar

StartChar: uni27E9.big5
Encoding: 144 -1 144
Width: 544
Flags: W
LayerCount: 2
Back
Fore
SplineSet
153 -1201 m 1
 91 -1189 l 1
 391 275 l 1
 91 1739 l 1
 153 1751 l 1
 453 275 l 1
 153 -1201 l 1
EndSplineSet
EndChar

StartChar: uni27EA
Encoding: 145 10218 145
Width: 608
Flags: W
HStem: -227 21G<287.873 346 447.873 506>
LayerCount: 2
Back
Fore
SplineSet
356 -203 m 1
 296 -227 l 1
 92 275 l 1
 296 777 l 1
 356 753 l 1
 152 275 l 1
 356 -203 l 1
516 -203 m 1
 456 -227 l 1
 252 275 l 1
 456 777 l 1
 516 753 l 1
 312 275 l 1
 516 -203 l 1
EndSplineSet
EndChar

StartChar: uni27EA.big1
Encoding: 146 -1 146
Width: 620
Flags: W
LayerCount: 2
Back
Fore
SplineSet
368 -302 m 1
 308 -324 l 1
 92 275 l 1
 308 874 l 1
 368 852 l 1
 152 275 l 1
 368 -302 l 1
528 -302 m 1
 468 -324 l 1
 252 275 l 1
 468 874 l 1
 528 852 l 1
 312 275 l 1
 528 -302 l 1
EndSplineSet
EndChar

StartChar: uni27EA.big2
Encoding: 147 -1 147
Width: 638
Flags: W
LayerCount: 2
Back
Fore
SplineSet
386 -450 m 1
 326 -470 l 1
 92 275 l 1
 326 1020 l 1
 386 1000 l 1
 152 275 l 1
 386 -450 l 1
546 -450 m 1
 486 -470 l 1
 252 275 l 1
 486 1020 l 1
 546 1000 l 1
 312 275 l 1
 546 -450 l 1
EndSplineSet
EndChar

StartChar: uni27EA.big3
Encoding: 148 -1 148
Width: 656
Flags: W
VStem: 343 62<-600.032 -591.25 1141.25 1150.03> 503 62<-600.032 -591.25 1141.25 1150.03>
LayerCount: 2
Back
Fore
SplineSet
405 -598 m 1
 343 -616 l 1
 91 275 l 1
 343 1166 l 1
 405 1148 l 1
 153 275 l 1
 405 -598 l 1
565 -598 m 1
 503 -616 l 1
 251 275 l 1
 503 1166 l 1
 565 1148 l 1
 313 275 l 1
 565 -598 l 1
EndSplineSet
EndChar

StartChar: uni27EA.big4
Encoding: 149 -1 149
Width: 692
Flags: W
VStem: 379 62<-894.806 -880.222 1430.22 1444.81> 539 62<-894.806 -880.222 1430.22 1444.81>
LayerCount: 2
Back
Fore
SplineSet
441 -893 m 1
 379 -909 l 1
 91 275 l 1
 379 1459 l 1
 441 1443 l 1
 153 275 l 1
 441 -893 l 1
601 -893 m 1
 539 -909 l 1
 251 275 l 1
 539 1459 l 1
 601 1443 l 1
 313 275 l 1
 601 -893 l 1
EndSplineSet
EndChar

StartChar: uni27EA.big5
Encoding: 150 -1 150
Width: 728
Flags: W
VStem: 415 62<-1189.58 -1170.09 1720.09 1739.58> 575 62<-1189.58 -1170.09 1720.09 1739.58>
LayerCount: 2
Back
Fore
SplineSet
477 -1188 m 1
 415 -1202 l 1
 91 275 l 1
 415 1752 l 1
 477 1738 l 1
 153 275 l 1
 477 -1188 l 1
637 -1188 m 1
 575 -1202 l 1
 251 275 l 1
 575 1752 l 1
 637 1738 l 1
 313 275 l 1
 637 -1188 l 1
EndSplineSet
EndChar

StartChar: uni27EB
Encoding: 151 10219 151
Width: 608
Flags: W
HStem: -227 21G<102 160.127 262 320.127>
LayerCount: 2
Back
Fore
SplineSet
152 -227 m 1
 92 -203 l 1
 296 275 l 1
 92 753 l 1
 152 777 l 1
 356 275 l 1
 152 -227 l 1
312 -227 m 1
 252 -203 l 1
 456 275 l 1
 252 753 l 1
 312 777 l 1
 516 275 l 1
 312 -227 l 1
EndSplineSet
EndChar

StartChar: uni27EB.big1
Encoding: 152 -1 152
Width: 620
Flags: W
LayerCount: 2
Back
Fore
SplineSet
152 -324 m 1
 92 -302 l 1
 308 275 l 1
 92 852 l 1
 152 874 l 1
 368 275 l 1
 152 -324 l 1
312 -324 m 1
 252 -302 l 1
 468 275 l 1
 252 852 l 1
 312 874 l 1
 528 275 l 1
 312 -324 l 1
EndSplineSet
EndChar

StartChar: uni27EB.big2
Encoding: 153 -1 153
Width: 638
Flags: W
LayerCount: 2
Back
Fore
SplineSet
152 -470 m 1
 92 -450 l 1
 326 275 l 1
 92 1000 l 1
 152 1020 l 1
 386 275 l 1
 152 -470 l 1
312 -470 m 1
 252 -450 l 1
 486 275 l 1
 252 1000 l 1
 312 1020 l 1
 546 275 l 1
 312 -470 l 1
EndSplineSet
EndChar

StartChar: uni27EB.big3
Encoding: 154 -1 154
Width: 656
Flags: W
LayerCount: 2
Back
Fore
SplineSet
153 -616 m 1
 91 -598 l 1
 343 275 l 1
 91 1148 l 1
 153 1166 l 1
 405 275 l 1
 153 -616 l 1
313 -616 m 1
 251 -598 l 1
 503 275 l 1
 251 1148 l 1
 313 1166 l 1
 565 275 l 1
 313 -616 l 1
EndSplineSet
EndChar

StartChar: uni27EB.big4
Encoding: 155 -1 155
Width: 692
Flags: W
LayerCount: 2
Back
Fore
SplineSet
153 -909 m 1
 91 -893 l 1
 379 275 l 1
 91 1443 l 1
 153 1459 l 1
 441 275 l 1
 153 -909 l 1
313 -909 m 1
 251 -893 l 1
 539 275 l 1
 251 1443 l 1
 313 1459 l 1
 601 275 l 1
 313 -909 l 1
EndSplineSet
EndChar

StartChar: uni27EB.big5
Encoding: 156 -1 156
Width: 728
Flags: W
LayerCount: 2
Back
Fore
SplineSet
153 -1202 m 1
 91 -1188 l 1
 415 275 l 1
 91 1738 l 1
 153 1752 l 1
 477 275 l 1
 153 -1202 l 1
313 -1202 m 1
 251 -1188 l 1
 575 275 l 1
 251 1738 l 1
 313 1752 l 1
 637 275 l 1
 313 -1202 l 1
EndSplineSet
EndChar

StartChar: uni2991
Encoding: 157 10641 157
Width: 424
Flags: W
HStem: -226 21G<264.814 326.545> 219 112<244.003 311.997>
VStem: 222 112<241.003 308.997>
LayerCount: 2
Back
Fore
SplineSet
332 -204 m 1
 272 -226 l 1
 92 275 l 1
 272 776 l 1
 332 754 l 1
 152 275 l 1
 332 -204 l 1
334 275 m 0
 334 264 322 251 312 241 c 0
 301 231 289 219 278 219 c 0
 267 219 254 231 244 241 c 0
 234 251 222 264 222 275 c 0
 222 286 234 299 244 309 c 0
 254 319 267 331 278 331 c 0
 289 331 301 319 312 309 c 0
 322 299 334 286 334 275 c 0
EndSplineSet
EndChar

StartChar: uni2991.big1
Encoding: 158 -1 158
Width: 436
Flags: W
HStem: 219 112<256.003 323.997>
VStem: 234 112<241.003 308.997>
LayerCount: 2
Back
Fore
SplineSet
344 -303 m 1
 284 -323 l 1
 92 275 l 1
 284 873 l 1
 344 853 l 1
 152 275 l 1
 344 -303 l 1
346 275 m 0
 346 264 334 251 324 241 c 0
 313 231 301 219 290 219 c 0
 279 219 266 231 256 241 c 0
 246 251 234 264 234 275 c 0
 234 286 246 299 256 309 c 0
 266 319 279 331 290 331 c 0
 301 331 313 319 324 309 c 0
 334 299 346 286 346 275 c 0
EndSplineSet
EndChar

StartChar: uni2991.big2
Encoding: 159 -1 159
Width: 454
Flags: W
HStem: 219 112<274.003 341.997>
VStem: 252 112<241.003 308.997> 301 62<-453.032 -444.2 994.2 1003.03>
LayerCount: 2
Back
Fore
SplineSet
363 -451 m 1xa0
 301 -469 l 1
 91 275 l 1
 301 1019 l 1
 363 1001 l 1
 153 275 l 1
 363 -451 l 1xa0
364 275 m 0xc0
 364 264 352 251 342 241 c 0
 331 231 319 219 308 219 c 0
 297 219 284 231 274 241 c 0
 264 251 252 264 252 275 c 0
 252 286 264 299 274 309 c 0
 284 319 297 331 308 331 c 0
 319 331 331 319 342 309 c 0
 352 299 364 286 364 275 c 0xc0
EndSplineSet
EndChar

StartChar: uni2991.big3
Encoding: 160 -1 160
Width: 472
Flags: W
HStem: 219 112<292.003 359.997>
VStem: 270 112<241.003 308.997> 319 62<-600.806 -587.675 1137.68 1150.81>
LayerCount: 2
Back
Fore
SplineSet
381 -599 m 1xa0
 319 -615 l 1
 91 275 l 1
 319 1165 l 1
 381 1149 l 1
 153 275 l 1
 381 -599 l 1xa0
382 275 m 0xc0
 382 264 370 251 360 241 c 0
 349 231 337 219 326 219 c 0
 315 219 302 231 292 241 c 0
 282 251 270 264 270 275 c 0
 270 286 282 299 292 309 c 0
 302 319 315 331 326 331 c 0
 337 331 349 319 360 309 c 0
 370 299 382 286 382 275 c 0xc0
EndSplineSet
EndChar

StartChar: uni2991.big4
Encoding: 161 -1 161
Width: 508
Flags: W
HStem: 219 112<328.003 395.997>
VStem: 306 112<241.003 308.997> 355 62<-895.581 -876.633 1426.63 1445.58>
LayerCount: 2
Back
Fore
SplineSet
417 -894 m 1xa0
 355 -908 l 1
 91 275 l 1
 355 1458 l 1
 417 1444 l 1
 153 275 l 1
 417 -894 l 1xa0
418 275 m 0xc0
 418 264 406 251 396 241 c 0
 385 231 373 219 362 219 c 0
 351 219 338 231 328 241 c 0
 318 251 306 264 306 275 c 0
 306 286 318 299 328 309 c 0
 338 319 351 331 362 331 c 0
 373 331 385 319 396 309 c 0
 406 299 418 286 418 275 c 0xc0
EndSplineSet
EndChar

StartChar: uni2991.big5
Encoding: 162 -1 162
Width: 544
Flags: W
HStem: 219 112<364.003 431.997>
VStem: 342 112<241.003 308.997> 391 62<-1190.35 -1166.56 1716.56 1740.35>
LayerCount: 2
Back
Fore
SplineSet
453 -1189 m 1xa0
 391 -1201 l 1
 91 275 l 1
 391 1751 l 1
 453 1739 l 1
 153 275 l 1
 453 -1189 l 1xa0
454 275 m 0xc0
 454 264 442 251 432 241 c 0
 421 231 409 219 398 219 c 0
 387 219 374 231 364 241 c 0
 354 251 342 264 342 275 c 0
 342 286 354 299 364 309 c 0
 374 319 387 331 398 331 c 0
 409 331 421 319 432 309 c 0
 442 299 454 286 454 275 c 0xc0
EndSplineSet
EndChar

StartChar: uni2992
Encoding: 163 10642 163
Width: 424
Flags: W
HStem: -226 21G<97.4545 159.186> 219 112<113.003 179.997>
VStem: 90 113<242.426 307.574>
LayerCount: 2
Back
Fore
SplineSet
152 -226 m 1
 92 -204 l 1
 272 275 l 1
 92 754 l 1
 152 776 l 1
 332 275 l 1
 152 -226 l 1
203 275 m 0
 203 264 190 251 180 241 c 0
 170 231 157 219 146 219 c 0
 135 219 123 231 113 241 c 0
 102 251 90 264 90 275 c 0
 90 286 102 299 113 309 c 0
 123 319 135 331 146 331 c 0
 157 331 170 319 180 309 c 0
 190 299 203 286 203 275 c 0
EndSplineSet
EndChar

StartChar: uni2992.big1
Encoding: 164 -1 164
Width: 436
Flags: W
HStem: 219 112<113.003 179.997>
VStem: 90 113<242.426 307.574>
LayerCount: 2
Back
Fore
SplineSet
152 -323 m 1
 92 -303 l 1
 284 275 l 1
 92 853 l 1
 152 873 l 1
 344 275 l 1
 152 -323 l 1
203 275 m 0
 203 264 190 251 180 241 c 0
 170 231 157 219 146 219 c 0
 135 219 123 231 113 241 c 0
 102 251 90 264 90 275 c 0
 90 286 102 299 113 309 c 0
 123 319 135 331 146 331 c 0
 157 331 170 319 180 309 c 0
 190 299 203 286 203 275 c 0
EndSplineSet
EndChar

StartChar: uni2992.big2
Encoding: 165 -1 165
Width: 454
Flags: W
HStem: 219 112<113.003 179.997>
VStem: 90 113<242.426 307.574>
LayerCount: 2
Back
Fore
SplineSet
153 -469 m 1
 91 -451 l 1
 301 275 l 1
 91 1001 l 1
 153 1019 l 1
 363 275 l 1
 153 -469 l 1
203 275 m 0
 203 264 190 251 180 241 c 0
 170 231 157 219 146 219 c 0
 135 219 123 231 113 241 c 0
 102 251 90 264 90 275 c 0
 90 286 102 299 113 309 c 0
 123 319 135 331 146 331 c 0
 157 331 170 319 180 309 c 0
 190 299 203 286 203 275 c 0
EndSplineSet
EndChar

StartChar: uni2992.big3
Encoding: 166 -1 166
Width: 472
Flags: W
HStem: 219 112<113.003 179.997>
VStem: 90 113<242.426 307.574>
LayerCount: 2
Back
Fore
SplineSet
153 -615 m 1
 91 -599 l 1
 319 275 l 1
 91 1149 l 1
 153 1165 l 1
 381 275 l 1
 153 -615 l 1
203 275 m 0
 203 264 190 251 180 241 c 0
 170 231 157 219 146 219 c 0
 135 219 123 231 113 241 c 0
 102 251 90 264 90 275 c 0
 90 286 102 299 113 309 c 0
 123 319 135 331 146 331 c 0
 157 331 170 319 180 309 c 0
 190 299 203 286 203 275 c 0
EndSplineSet
EndChar

StartChar: uni2992.big4
Encoding: 167 -1 167
Width: 508
Flags: W
HStem: 219 112<113.003 179.997>
VStem: 90 113<242.426 307.574>
LayerCount: 2
Back
Fore
SplineSet
153 -908 m 1
 91 -894 l 1
 355 275 l 1
 91 1444 l 1
 153 1458 l 1
 417 275 l 1
 153 -908 l 1
203 275 m 0
 203 264 190 251 180 241 c 0
 170 231 157 219 146 219 c 0
 135 219 123 231 113 241 c 0
 102 251 90 264 90 275 c 0
 90 286 102 299 113 309 c 0
 123 319 135 331 146 331 c 0
 157 331 170 319 180 309 c 0
 190 299 203 286 203 275 c 0
EndSplineSet
EndChar

StartChar: uni2992.big5
Encoding: 168 -1 168
Width: 544
Flags: W
HStem: 219 112<113.003 179.997>
VStem: 90 113<242.426 307.574>
LayerCount: 2
Back
Fore
SplineSet
153 -1201 m 1
 91 -1189 l 1
 391 275 l 1
 91 1739 l 1
 153 1751 l 1
 453 275 l 1
 153 -1201 l 1
203 275 m 0
 203 264 190 251 180 241 c 0
 170 231 157 219 146 219 c 0
 135 219 123 231 113 241 c 0
 102 251 90 264 90 275 c 0
 90 286 102 299 113 309 c 0
 123 319 135 331 146 331 c 0
 157 331 170 319 180 309 c 0
 190 299 203 286 203 275 c 0
EndSplineSet
EndChar

StartChar: slash
Encoding: 169 47 169
Width: 514
Flags: W
HStem: -223 21G<91 158.51>
VStem: 91 332
LayerCount: 2
Back
Fore
SplineSet
153 -223 m 1
 91 -207 l 1
 361 773 l 1
 423 757 l 1
 153 -223 l 1
EndSplineSet
EndChar

StartChar: slash.big1
Encoding: 170 -1 170
Width: 586
Flags: W
LayerCount: 2
Back
Fore
SplineSet
153 -322 m 1
 91 -304 l 1
 433 872 l 1
 495 854 l 1
 153 -322 l 1
EndSplineSet
EndChar

StartChar: slash.big2
Encoding: 171 -1 171
Width: 694
Flags: W
LayerCount: 2
Back
Fore
SplineSet
153 -469 m 1
 91 -451 l 1
 541 1019 l 1
 603 1001 l 1
 153 -469 l 1
EndSplineSet
EndChar

StartChar: slash.big3
Encoding: 172 -1 172
Width: 802
Flags: W
LayerCount: 2
Back
Fore
SplineSet
153 -617 m 1
 91 -597 l 1
 649 1167 l 1
 711 1147 l 1
 153 -617 l 1
EndSplineSet
EndChar

StartChar: slash.big4
Encoding: 173 -1 173
Width: 1018
Flags: W
LayerCount: 2
Back
Fore
SplineSet
152 -911 m 1
 92 -891 l 1
 866 1461 l 1
 926 1441 l 1
 152 -911 l 1
EndSplineSet
EndChar

StartChar: slash.big5
Encoding: 174 -1 174
Width: 1234
Flags: W
LayerCount: 2
Back
Fore
SplineSet
152 -1205 m 1
 92 -1185 l 1
 1082 1755 l 1
 1142 1735 l 1
 152 -1205 l 1
EndSplineSet
EndChar

StartChar: backslash
Encoding: 175 92 175
Width: 514
Flags: W
HStem: -223 21G<355.49 423>
VStem: 91 332
LayerCount: 2
Back
Fore
SplineSet
423 -206 m 1
 361 -223 l 1
 91 757 l 1
 153 773 l 1
 423 -206 l 1
EndSplineSet
EndChar

StartChar: backslash.big1
Encoding: 176 -1 176
Width: 586
Flags: W
LayerCount: 2
Back
Fore
SplineSet
495 -304 m 1
 433 -322 l 1
 91 854 l 1
 153 872 l 1
 495 -304 l 1
EndSplineSet
EndChar

StartChar: backslash.big2
Encoding: 177 -1 177
Width: 694
Flags: W
LayerCount: 2
Back
Fore
SplineSet
603 -451 m 1
 541 -469 l 1
 91 1001 l 1
 153 1019 l 1
 603 -451 l 1
EndSplineSet
EndChar

StartChar: backslash.big3
Encoding: 178 -1 178
Width: 802
Flags: W
LayerCount: 2
Back
Fore
SplineSet
711 -597 m 1
 649 -617 l 1
 91 1147 l 1
 153 1167 l 1
 711 -597 l 1
EndSplineSet
EndChar

StartChar: backslash.big4
Encoding: 179 -1 179
Width: 1018
Flags: W
LayerCount: 2
Back
Fore
SplineSet
926 -891 m 1
 866 -911 l 1
 92 1441 l 1
 152 1461 l 1
 926 -891 l 1
EndSplineSet
EndChar

StartChar: backslash.big5
Encoding: 180 -1 180
Width: 1234
Flags: W
LayerCount: 2
Back
Fore
SplineSet
1142 -1185 m 1
 1082 -1205 l 1
 92 1735 l 1
 152 1755 l 1
 1142 -1185 l 1
EndSplineSet
EndChar

StartChar: uni2223.short
Encoding: 181 58113 181
Width: 364
Flags: W
VStem: 150 64<30 520>
LayerCount: 2
Back
Fore
SplineSet
150 520 m 1
 214 520 l 1
 214 30 l 1
 150 30 l 1
 150 520 l 1
EndSplineSet
EndChar

StartChar: uni2223
Encoding: 182 8739 182
Width: 364
Flags: W
HStem: 745 20G<150 214>
VStem: 150 64<-215 765>
LayerCount: 2
Back
Fore
SplineSet
150 765 m 1
 214 765 l 1
 214 -215 l 1
 150 -215 l 1
 150 765 l 1
EndSplineSet
EndChar

StartChar: uni2223.big1
Encoding: 183 -1 183
Width: 364
Flags: W
VStem: 150 64<-313 863>
LayerCount: 2
Back
Fore
SplineSet
150 863 m 1
 214 863 l 1
 214 -313 l 1
 150 -313 l 1
 150 863 l 1
EndSplineSet
EndChar

StartChar: uni2224.short
Encoding: 184 58026 184
Width: 484
Flags: W
VStem: 210 64<30 223 327 520>
LayerCount: 2
Back
Fore
SplineSet
373 384 m 1
 401 334 l 1
 274 260 l 1
 274 30 l 1
 210 30 l 1
 210 223 l 1
 111 166 l 1
 83 216 l 1
 210 290 l 1
 210 520 l 1
 274 520 l 1
 274 327 l 1
 373 384 l 1
EndSplineSet
EndChar

StartChar: uni2224
Encoding: 185 8740 185
Width: 544
Flags: W
HStem: 745 20G<240 304>
VStem: 240 64<-215 202 348 765>
LayerCount: 2
Back
Fore
SplineSet
422 466 m 1
 463 425 l 1
 304 266 l 1
 304 -215 l 1
 240 -215 l 1
 240 202 l 1
 122 84 l 1
 81 125 l 1
 240 284 l 1
 240 765 l 1
 304 765 l 1
 304 348 l 1
 422 466 l 1
EndSplineSet
EndChar

StartChar: uni2224.big1
Encoding: 186 -1 186
Width: 544
Flags: W
VStem: 240 64<-313 202 348 863>
LayerCount: 2
Back
Fore
SplineSet
422 466 m 1
 463 425 l 1
 304 266 l 1
 304 -313 l 1
 240 -313 l 1
 240 202 l 1
 122 84 l 1
 81 125 l 1
 240 284 l 1
 240 863 l 1
 304 863 l 1
 304 348 l 1
 422 466 l 1
EndSplineSet
EndChar

StartChar: sym0A8
Encoding: 187 -1 187
Width: 364
Flags: W
VStem: 150 64<96 454>
LayerCount: 2
Back
Fore
SplineSet
150 454 m 1
 214 454 l 1
 214 96 l 1
 150 96 l 1
 150 454 l 1
EndSplineSet
EndChar

StartChar: uni2225.short
Encoding: 188 58114 188
Width: 608
Flags: W
VStem: 150 64<30 520> 394 64<30 520>
LayerCount: 2
Back
Fore
SplineSet
150 520 m 1
 214 520 l 1
 214 30 l 1
 150 30 l 1
 150 520 l 1
394 520 m 1
 458 520 l 1
 458 30 l 1
 394 30 l 1
 394 520 l 1
EndSplineSet
EndChar

StartChar: uni2225
Encoding: 189 8741 189
Width: 608
Flags: W
HStem: 745 20G<150 214 394 458>
VStem: 150 64<-215 765> 394 64<-215 765>
LayerCount: 2
Back
Fore
SplineSet
150 765 m 1
 214 765 l 1
 214 -215 l 1
 150 -215 l 1
 150 765 l 1
394 765 m 1
 458 765 l 1
 458 -215 l 1
 394 -215 l 1
 394 765 l 1
EndSplineSet
EndChar

StartChar: uni2225.big1
Encoding: 190 -1 190
Width: 608
Flags: W
VStem: 150 64<-313 863> 394 64<-313 863>
LayerCount: 2
Back
Fore
SplineSet
150 863 m 1
 214 863 l 1
 214 -313 l 1
 150 -313 l 1
 150 863 l 1
394 863 m 1
 458 863 l 1
 458 -313 l 1
 394 -313 l 1
 394 863 l 1
EndSplineSet
EndChar

StartChar: uni2226.short
Encoding: 191 58027 191
Width: 728
Flags: W
VStem: 210 64<30 153 256 520> 454 64<30 294 397 520>
LayerCount: 2
Back
Fore
SplineSet
617 454 m 1
 645 404 l 1
 518 331 l 1
 518 30 l 1
 454 30 l 1
 454 294 l 1
 274 190 l 1
 274 30 l 1
 210 30 l 1
 210 153 l 1
 111 96 l 1
 83 146 l 1
 210 219 l 1
 210 520 l 1
 274 520 l 1
 274 256 l 1
 454 360 l 1
 454 520 l 1
 518 520 l 1
 518 397 l 1
 617 454 l 1
EndSplineSet
EndChar

StartChar: uni2226
Encoding: 192 8742 192
Width: 788
Flags: W
HStem: 745 20G<240 304 484 548>
VStem: 240 64<-215 80 226 765> 484 64<-215 324 470 765>
LayerCount: 2
Back
Fore
SplineSet
666 588 m 1
 707 547 l 1
 548 388 l 1
 548 -215 l 1
 484 -215 l 1
 484 324 l 1
 304 144 l 1
 304 -215 l 1
 240 -215 l 1
 240 80 l 1
 122 -38 l 1
 81 3 l 1
 240 162 l 1
 240 765 l 1
 304 765 l 1
 304 226 l 1
 484 406 l 1
 484 765 l 1
 548 765 l 1
 548 470 l 1
 666 588 l 1
EndSplineSet
EndChar

StartChar: uni2226.big1
Encoding: 193 -1 193
Width: 788
Flags: W
VStem: 240 64<-313 80 226 863> 484 64<-313 324 470 863>
LayerCount: 2
Back
Fore
SplineSet
666 588 m 1
 707 547 l 1
 548 388 l 1
 548 -313 l 1
 484 -313 l 1
 484 324 l 1
 304 144 l 1
 304 -313 l 1
 240 -313 l 1
 240 80 l 1
 122 -38 l 1
 81 3 l 1
 240 162 l 1
 240 863 l 1
 304 863 l 1
 304 226 l 1
 484 406 l 1
 484 863 l 1
 548 863 l 1
 548 470 l 1
 666 588 l 1
EndSplineSet
EndChar

StartChar: sym0A9
Encoding: 194 -1 194
Width: 608
Flags: W
VStem: 150 64<96 454> 394 64<96 454>
LayerCount: 2
Back
Fore
SplineSet
150 454 m 1
 214 454 l 1
 214 96 l 1
 150 96 l 1
 150 454 l 1
394 454 m 1
 458 454 l 1
 458 96 l 1
 394 96 l 1
 394 454 l 1
EndSplineSet
EndChar

StartChar: uni2980
Encoding: 195 10624 195
Width: 852
Flags: W
HStem: 745 20G<150 214 394 458 638 702>
VStem: 150 64<-215 765> 394 64<-215 765> 638 64<-215 765>
CounterMasks: 1 70
LayerCount: 2
Back
Fore
SplineSet
150 765 m 1
 214 765 l 1
 214 -215 l 1
 150 -215 l 1
 150 765 l 1
394 765 m 1
 458 765 l 1
 458 -215 l 1
 394 -215 l 1
 394 765 l 1
638 765 m 1
 702 765 l 1
 702 -215 l 1
 638 -215 l 1
 638 765 l 1
EndSplineSet
EndChar

StartChar: uni2980.big1
Encoding: 196 -1 196
Width: 852
Flags: W
VStem: 150 64<-313 863> 394 64<-313 863> 638 64<-313 863>
CounterMasks: 1 e0
LayerCount: 2
Back
Fore
SplineSet
150 863 m 1
 214 863 l 1
 214 -313 l 1
 150 -313 l 1
 150 863 l 1
394 863 m 1
 458 863 l 1
 458 -313 l 1
 394 -313 l 1
 394 863 l 1
638 863 m 1
 702 863 l 1
 702 -313 l 1
 638 -313 l 1
 638 863 l 1
EndSplineSet
EndChar

StartChar: sym0AA
Encoding: 197 -1 197
Width: 852
Flags: W
VStem: 150 64<96 454> 394 64<96 454> 638 64<96 454>
CounterMasks: 1 e0
LayerCount: 2
Back
Fore
SplineSet
150 454 m 1
 214 454 l 1
 214 96 l 1
 150 96 l 1
 150 454 l 1
394 454 m 1
 458 454 l 1
 458 96 l 1
 394 96 l 1
 394 454 l 1
638 454 m 1
 702 454 l 1
 702 96 l 1
 638 96 l 1
 638 454 l 1
EndSplineSet
EndChar

StartChar: arrowup.short
Encoding: 198 -1 198
Width: 544
Flags: W
VStem: 240 64<-19 460>
LayerCount: 2
Back
Fore
SplineSet
272 582 m 1
 449 406 l 1
 403 360 l 1
 304 460 l 1
 304 -19 l 1
 240 -19 l 1
 240 460 l 1
 141 360 l 1
 95 406 l 1
 272 582 l 1
EndSplineSet
EndChar

StartChar: arrowdown.short
Encoding: 199 -1 199
Width: 544
Flags: W
VStem: 240 64<90 601>
LayerCount: 2
Back
Fore
SplineSet
272 -32 m 1
 95 144 l 1
 141 190 l 1
 240 90 l 1
 240 601 l 1
 304 601 l 1
 304 90 l 1
 403 190 l 1
 449 144 l 1
 272 -32 l 1
EndSplineSet
EndChar

StartChar: sym0AB
Encoding: 200 -1 200
Width: 544
Flags: W
VStem: 240 64<96 454>
LayerCount: 2
Back
Fore
SplineSet
240 454 m 1
 304 454 l 1
 304 96 l 1
 240 96 l 1
 240 454 l 1
EndSplineSet
EndChar

StartChar: arrowdblup.short
Encoding: 201 -1 201
Width: 664
Flags: W
VStem: 204 64<-51 364> 396 64<-51 364>
LayerCount: 2
Back
Fore
SplineSet
332 582 m 1
 555 359 l 1
 510 314 l 1
 460 364 l 1
 460 -51 l 1
 396 -51 l 1
 396 428 l 1
 332 492 l 1
 268 428 l 1
 268 -51 l 1
 204 -51 l 1
 204 364 l 1
 154 314 l 1
 109 359 l 1
 332 582 l 1
EndSplineSet
EndChar

StartChar: arrowdbldown.short
Encoding: 202 -1 202
Width: 664
Flags: W
VStem: 204 64<186 601> 396 64<186 601>
LayerCount: 2
Back
Fore
SplineSet
332 -32 m 1
 109 191 l 1
 154 236 l 1
 204 186 l 1
 204 601 l 1
 268 601 l 1
 268 122 l 1
 332 58 l 1
 396 122 l 1
 396 601 l 1
 460 601 l 1
 460 186 l 1
 510 236 l 1
 555 191 l 1
 332 -32 l 1
EndSplineSet
EndChar

StartChar: sym0AC
Encoding: 203 -1 203
Width: 664
Flags: W
VStem: 204 64<96 454> 396 64<96 454>
LayerCount: 2
Back
Fore
SplineSet
204 454 m 1
 268 454 l 1
 268 96 l 1
 204 96 l 1
 204 454 l 1
396 454 m 1
 460 454 l 1
 460 96 l 1
 396 96 l 1
 396 454 l 1
EndSplineSet
EndChar

StartChar: sym0AD
Encoding: 204 -1 204
Width: 245
Flags: W
HStem: 243 64<128.212 277>
VStem: 0 53<70 159.766>
LayerCount: 2
Back
Fore
SplineSet
0 70 m 1
 0 195 82 307 200 307 c 2
 277 307 l 1
 277 243 l 1
 200 243 l 2
 114 243 53 161 53 70 c 1
 0 70 l 1
EndSplineSet
EndChar

StartChar: sym0AF
Encoding: 205 -1 205
Width: 245
Flags: W
HStem: 243 64<128.212 277>
VStem: 0 53<390.234 480>
LayerCount: 2
Back
Fore
SplineSet
53 480 m 1
 53 389 114 307 200 307 c 2
 277 307 l 1
 277 243 l 1
 200 243 l 2
 82 243 0 355 0 480 c 1
 53 480 l 1
EndSplineSet
EndChar

StartChar: sym0AE
Encoding: 206 -1 206
Width: 245
Flags: W
HStem: 243 64<-32 116.788>
VStem: 192 53<70 159.766>
LayerCount: 2
Back
Fore
SplineSet
192 70 m 1
 192 161 131 243 45 243 c 2
 -32 243 l 1
 -32 307 l 1
 45 307 l 2
 163 307 245 195 245 70 c 1
 192 70 l 1
EndSplineSet
EndChar

StartChar: sym0B0
Encoding: 207 -1 207
Width: 245
Flags: W
HStem: 243 64<-32 116.788>
VStem: 192 53<390.234 480>
LayerCount: 2
Back
Fore
SplineSet
245 480 m 1
 245 355 163 243 45 243 c 2
 -32 243 l 1
 -32 307 l 1
 45 307 l 2
 131 307 192 389 192 480 c 1
 245 480 l 1
EndSplineSet
EndChar

StartChar: sym0B2
Encoding: 208 -1 208
Width: 490
Flags: W
HStem: 243 64<-32 145.559 344.441 522>
VStem: 216 58<389.208 480>
LayerCount: 2
Back
Fore
SplineSet
522 243 m 1
 413 243 l 2
 338 243 278 289 245 355 c 1
 212 289 152 243 77 243 c 2
 -32 243 l 1
 -32 307 l 1
 77 307 l 2
 160 307 216 390 216 480 c 1
 274 480 l 1
 274 390 330 307 413 307 c 2
 522 307 l 1
 522 243 l 1
EndSplineSet
EndChar

StartChar: sym0B3
Encoding: 209 -1 209
Width: 490
Flags: W
HStem: 243 64<-32 145.559 344.441 522>
VStem: 216 58<70 160.792>
LayerCount: 2
Back
Fore
SplineSet
-32 307 m 1
 77 307 l 2
 152 307 212 261 245 195 c 1
 278 261 338 307 413 307 c 2
 522 307 l 1
 522 243 l 1
 413 243 l 2
 330 243 274 160 274 70 c 1
 216 70 l 1
 216 160 160 243 77 243 c 2
 -32 243 l 1
 -32 307 l 1
EndSplineSet
EndChar

StartChar: sym0B1
Encoding: 210 -1 210
Width: 60
Flags: W
HStem: 243 64<-32 92>
VStem: -32 124<243 307>
LayerCount: 2
Back
Fore
SplineSet
-32 243 m 1
 -32 307 l 1
 92 307 l 1
 92 243 l 1
 -32 243 l 1
EndSplineSet
EndChar

StartChar: radical.tex
Encoding: 211 -1 211
Width: 700
Flags: W
HStem: 0 56<700 732>
LayerCount: 2
Back
Fore
SplineSet
69 -540 m 1
 56 -511 l 1
 204 -448 l 1
 351 -792 l 1
 652 56 l 1
 732 56 l 1
 732 0 l 1
 700 0 l 1
 370 -899 l 1
 311 -924 l 1
 135 -512 l 1
 69 -540 l 1
EndSplineSet
EndChar

StartChar: radical.tex.big1
Encoding: 212 -1 212
Width: 748
Flags: W
HStem: 0 56<748 780>
LayerCount: 2
Back
Fore
SplineSet
76 -632 m 1
 64 -602 l 1
 214 -546 l 1
 374 -973 l 1
 699 56 l 1
 780 56 l 1
 780 0 l 1
 748 0 l 1
 392 -1098 l 1
 332 -1120 l 1
 141 -607 l 1
 76 -632 l 1
EndSplineSet
EndChar

StartChar: radical.tex.big2
Encoding: 213 -1 213
Width: 820
Flags: W
HStem: 0 56<820 852>
LayerCount: 2
Back
Fore
SplineSet
88 -772 m 1
 78 -742 l 1
 230 -693 l 1
 408 -1248 l 1
 769 56 l 1
 852 56 l 1
 852 0 l 1
 820 0 l 1
 425 -1395 l 1
 364 -1414 l 1
 153 -751 l 1
 88 -772 l 1
EndSplineSet
EndChar

StartChar: radical.tex.big3
Encoding: 214 -1 214
Width: 892
Flags: W
HStem: 0 56<892 924>
LayerCount: 2
Back
Fore
SplineSet
101 -914 m 1
 92 -884 l 1
 246 -840 l 1
 441 -1526 l 1
 840 56 l 1
 924 56 l 1
 924 0 l 1
 892 0 l 1
 458 -1691 l 1
 396 -1708 l 1
 166 -896 l 1
 101 -914 l 1
EndSplineSet
EndChar

StartChar: radical.tex.big4
Encoding: 215 -1 215
Width: 1036
Flags: W
HStem: 0 56<1036 1068>
LayerCount: 2
Back
Fore
SplineSet
130 -1202 m 1
 123 -1171 l 1
 278 -1134 l 1
 507 -2087 l 1
 983 56 l 1
 1068 56 l 1
 1068 0 l 1
 1036 0 l 1
 523 -2281 l 1
 460 -2296 l 1
 195 -1187 l 1
 130 -1202 l 1
EndSplineSet
EndChar

StartChar: radical.tex.big5
Encoding: 216 -1 216
Width: 1180
Flags: W
HStem: 0 56<1180 1212>
LayerCount: 2
Back
Fore
SplineSet
160 -1493 m 1
 154 -1461 l 1
 310 -1428 l 1
 572 -2655 l 1
 1126 56 l 1
 1212 56 l 1
 1212 0 l 1
 1180 0 l 1
 587 -2871 l 1
 524 -2884 l 1
 225 -1479 l 1
 160 -1493 l 1
EndSplineSet
EndChar

StartChar: radical.tex.top
Encoding: 217 -1 217
Width: 1180
Flags: W
HStem: 0 56<588 1208>
VStem: 524 64<-564 0>
LayerCount: 2
Back
Fore
SplineSet
588 -564 m 1
 524 -564 l 1
 524 56 l 1
 1208 56 l 1
 1208 0 l 1
 588 0 l 1
 588 -564 l 1
EndSplineSet
EndChar

StartChar: uni23B7.tex
Encoding: 218 -1 218
Width: 1180
Flags: W
VStem: 524 64<-1029 32>
LayerCount: 2
Back
Fore
SplineSet
110 -686 m 1
 93 -659 l 1
 227 -572 l 1
 524 -1029 l 1
 524 32 l 1
 588 32 l 1
 588 -1134 l 1
 524 -1176 l 1
 177 -643 l 1
 110 -686 l 1
EndSplineSet
EndChar

StartChar: radical.ex
Encoding: 219 -1 219
Width: 1180
Flags: W
VStem: 524 64<96 454>
LayerCount: 2
Back
Fore
SplineSet
524 454 m 1
 588 454 l 1
 588 96 l 1
 524 96 l 1
 524 454 l 1
EndSplineSet
EndChar

StartChar: radical
Encoding: 220 8730 220
Width: 700
Flags: W
HStem: 709 56<700 732>
LayerCount: 2
Back
Fore
SplineSet
69 169 m 1
 56 198 l 1
 204 261 l 1
 351 -83 l 1
 652 765 l 1
 732 765 l 1
 732 709 l 1
 700 709 l 1
 370 -190 l 1
 311 -215 l 1
 135 197 l 1
 69 169 l 1
EndSplineSet
EndChar

StartChar: radical.big1
Encoding: 221 -1 221
Width: 748
Flags: W
HStem: 807 56<748 780>
LayerCount: 2
Back
Fore
SplineSet
76 175 m 1
 64 205 l 1
 214 261 l 1
 374 -166 l 1
 699 863 l 1
 780 863 l 1
 780 807 l 1
 748 807 l 1
 392 -291 l 1
 332 -313 l 1
 141 200 l 1
 76 175 l 1
EndSplineSet
EndChar

StartChar: radical.big2
Encoding: 222 -1 222
Width: 820
Flags: W
HStem: 954 56<820 852>
LayerCount: 2
Back
Fore
SplineSet
88 182 m 1
 78 212 l 1
 230 261 l 1
 408 -294 l 1
 769 1010 l 1
 852 1010 l 1
 852 954 l 1
 820 954 l 1
 425 -441 l 1
 364 -460 l 1
 153 203 l 1
 88 182 l 1
EndSplineSet
EndChar

StartChar: radical.big3
Encoding: 223 -1 223
Width: 892
Flags: W
HStem: 1101 56<892 924>
LayerCount: 2
Back
Fore
SplineSet
101 187 m 1
 92 217 l 1
 246 261 l 1
 441 -425 l 1
 840 1157 l 1
 924 1157 l 1
 924 1101 l 1
 892 1101 l 1
 458 -590 l 1
 396 -607 l 1
 166 205 l 1
 101 187 l 1
EndSplineSet
EndChar

StartChar: radical.big4
Encoding: 224 -1 224
Width: 1036
Flags: W
HStem: 1395 56<1036 1068>
LayerCount: 2
Back
Fore
SplineSet
130 193 m 1
 123 224 l 1
 278 261 l 1
 507 -692 l 1
 983 1451 l 1
 1068 1451 l 1
 1068 1395 l 1
 1036 1395 l 1
 523 -886 l 1
 460 -901 l 1
 195 208 l 1
 130 193 l 1
EndSplineSet
EndChar

StartChar: radical.big5
Encoding: 225 -1 225
Width: 1180
Flags: W
HStem: 1689 56<1180 1212>
LayerCount: 2
Back
Fore
SplineSet
160 196 m 1
 154 228 l 1
 310 261 l 1
 572 -966 l 1
 1126 1745 l 1
 1212 1745 l 1
 1212 1689 l 1
 1180 1689 l 1
 587 -1182 l 1
 524 -1195 l 1
 225 210 l 1
 160 196 l 1
EndSplineSet
EndChar

StartChar: radical.top
Encoding: 226 -1 226
Width: 1180
Flags: W
HStem: 532 56<588 1208>
VStem: 524 64<-32 532>
LayerCount: 2
Back
Fore
SplineSet
588 -32 m 1
 524 -32 l 1
 524 588 l 1
 1208 588 l 1
 1208 532 l 1
 588 532 l 1
 588 -32 l 1
EndSplineSet
EndChar

StartChar: uni23B7
Encoding: 227 9143 227
Width: 1180
Flags: W
HStem: 0 21G<510.979 554.476>
VStem: 524 64<147 1208>
LayerCount: 2
Back
Fore
SplineSet
110 490 m 1
 93 517 l 1
 227 604 l 1
 524 147 l 1
 524 1208 l 1
 588 1208 l 1
 588 42 l 1
 524 0 l 1
 177 533 l 1
 110 490 l 1
EndSplineSet
EndChar
